<svg width="245" height="165" viewBox="0 0 245 165" fill="none" xmlns="http://www.w3.org/2000/svg">
<g clip-path="url(#clip0_9_1000)">
<path d="M245 0H0V165H245V0Z" fill="white"/>
<path d="M245 0H0V165H245V0Z" fill="white"/>
<path d="M245 0H0V165H245V0Z" fill="#F16A51"/>
<path d="M220.606 147.44H206.428C206.159 147.44 205.98 147.673 205.98 147.906V159.084C205.98 162.345 208.53 165 211.661 165H215.418C218.549 165 221.098 162.345 221.098 159.084V147.906C221.054 147.673 220.83 147.44 220.606 147.44Z" fill="#C1C1C1"/>
<path d="M218.907 163.09C222.082 161.227 227.584 155.684 226.689 151.772C226.465 150.747 225.839 149.955 224.9 149.489C222.798 148.464 219.756 149.722 219.399 149.862L220.427 152.051C221.143 151.725 222.932 151.213 223.782 151.632C223.961 151.725 224.14 151.865 224.229 152.284C224.766 154.566 220.472 159.364 217.61 161.041L218.907 163.09Z" fill="#C1C1C1"/>
<path d="M214.971 143.946C215.016 144.04 215.016 143.9 215.06 143.807L215.149 143.434C215.194 143.201 215.239 142.922 215.284 142.689C215.329 142.176 215.373 141.618 215.373 141.058C215.329 139.94 215.105 138.776 214.702 137.705C214.255 136.634 213.629 135.749 212.958 135.05C212.6 134.677 212.242 134.398 211.885 134.118L210.99 133.466C209.961 132.721 209.022 131.743 208.351 130.765C208.038 130.252 207.814 129.74 207.725 129.321C207.635 128.901 207.635 128.622 207.68 128.436C207.725 128.343 207.725 128.249 207.814 128.11C207.904 127.97 207.948 127.737 208.083 127.551C208.306 127.132 208.619 126.759 208.932 126.386C209.603 125.734 210.409 125.268 211.213 125.175C212.019 125.036 212.868 125.222 213.718 125.641C214.121 125.874 214.568 126.107 214.971 126.479C215.194 126.666 215.373 126.805 215.597 127.038C215.82 127.271 215.999 127.458 216.268 127.504L217.118 127.644C218.951 127.97 220.606 126.247 220.875 123.731C221.009 122.381 220.696 121.03 220.069 120.052C219.801 119.632 219.443 119.306 219.086 119.027C218.728 118.747 218.325 118.514 217.967 118.235C217.207 117.723 216.357 117.35 215.507 117.07C213.808 116.465 211.885 116.419 210.095 117.024C208.306 117.63 206.606 118.887 205.265 120.657C204.594 121.589 204.012 122.567 203.565 123.731C203.341 124.29 203.162 124.942 202.984 125.641C202.715 126.479 202.581 127.318 202.581 128.11C202.536 129.787 202.939 131.324 203.476 132.535C204.012 133.746 204.683 134.631 205.354 135.376C206.696 136.867 208.127 137.705 209.559 138.357L210.095 138.59L210.364 138.683L210.543 138.729C210.811 138.823 211.035 138.916 211.258 139.056C211.705 139.289 212.153 139.568 212.511 140.034C212.868 140.453 213.226 141.012 213.494 141.664C213.629 141.99 213.763 142.363 213.853 142.782C213.897 142.968 213.942 143.201 214.031 143.387L214.121 143.713C214.166 143.853 214.166 143.9 214.255 144.273C214.344 144.598 214.568 144.785 214.836 144.645C214.926 144.598 215.06 144.273 214.971 143.946Z" fill="white"/>
<path d="M158 109.321H139.892C135.256 109.321 131.452 105.463 131.452 100.671V82.0294H165.647V101.483C165.647 105.828 162.239 109.321 158 109.321Z" fill="#444B51"/>
<path d="M175.197 136.653L123.488 135.76V130.114C123.488 120.895 134.543 112.326 145.36 112.326H153.523C163.151 112.326 175.157 120.976 175.157 129.139V136.653H175.197Z" fill="#383F45"/>
<path d="M151.938 100.711H145.36C144.013 100.711 142.943 101.808 142.943 103.188V113.788C142.943 116.997 145.479 119.636 148.649 119.636C151.779 119.636 154.355 117.037 154.355 113.788V103.188C154.355 101.808 153.285 100.711 151.938 100.711Z" fill="#FBC39D"/>
<path d="M142.943 112.285C142.943 112.285 143.419 115.738 148.649 115.738C153.879 115.738 154.355 112.285 154.355 112.285H142.943Z" fill="#F9AC7F"/>
<path d="M165.053 87.4307C163.072 87.4307 161.447 89.1367 161.447 91.2485C161.447 93.3602 163.072 95.0659 165.053 95.0659C167.034 95.0659 168.659 93.3602 168.659 91.2485C168.619 89.1367 167.034 87.4307 165.053 87.4307Z" fill="#F9AC7F"/>
<path d="M132.285 87.4307C130.303 87.4307 128.679 89.1367 128.679 91.2485C128.679 93.3602 130.303 95.0659 132.285 95.0659C134.266 95.0659 135.89 93.3602 135.89 91.2485C135.89 89.1367 134.266 87.4307 132.285 87.4307Z" fill="#F9AC7F"/>
<path d="M147.341 113.423C147.738 113.504 148.213 113.504 148.649 113.504C149.996 113.504 151.304 113.342 152.572 112.976V112.935C159.545 111.067 164.696 104.326 164.696 96.3249V76.3031C164.696 66.8405 157.485 68.3433 148.649 68.3433C139.773 68.3839 132.602 66.8811 132.602 76.3031V96.3655C132.602 105.341 139.1 112.732 147.341 113.423Z" fill="#FBC39D"/>
<path d="M162.675 89.7863V95.1876H155.781C155.781 95.1876 154.355 91.289 148.649 91.289C142.943 91.289 141.517 95.1876 141.517 95.1876H134.662V89.7863C134.662 87.6339 133.909 86.9434 132.602 86.7V96.3654C132.602 105.341 139.1 112.692 147.341 113.423L147.302 113.463C147.738 113.504 148.174 113.544 148.649 113.544C149.085 113.544 149.56 113.504 149.996 113.463L149.957 113.423C158.198 112.692 164.696 105.341 164.696 96.3654V86.7C163.429 86.9434 162.675 87.6339 162.675 89.7863Z" fill="#3A0909"/>
<path d="M143.696 97.5432H153.364C153.364 97.5432 152.492 101.442 148.53 101.442C144.568 101.442 143.696 97.5432 143.696 97.5432Z" fill="#E6E6E6"/>
<path d="M186.568 165H111.284C109.739 165 108.471 163.701 108.471 162.117V161.995C108.471 160.411 109.739 159.111 111.284 159.111H186.608C188.153 159.111 189.421 160.411 189.421 161.995V162.117C189.382 163.701 188.113 165 186.568 165Z" fill="#C1C1C1"/>
<path d="M179.674 165H117.703C115.722 165 114.098 163.335 114.098 161.304V124.835C114.098 122.804 115.722 121.139 117.703 121.139H179.714C181.695 121.139 183.319 122.804 183.319 124.835V161.304C183.28 163.335 181.695 165 179.674 165Z" fill="#D2D3D5"/>
<path d="M147.857 148.024C145.202 148.024 143.023 145.791 143.023 143.069C143.023 140.349 145.202 138.115 147.857 138.115C150.511 138.115 152.691 140.349 152.691 143.069C152.691 145.791 150.511 148.024 147.857 148.024Z" fill="white"/>
<path d="M148.966 93.5632H148.054C146.945 93.5632 146.113 92.5887 146.232 91.4514L146.707 87.634C146.826 86.7 147.619 86.0095 148.53 86.0095C149.441 86.0095 150.234 86.7 150.353 87.634L150.828 91.4514C150.907 92.5887 150.075 93.5632 148.966 93.5632Z" fill="#F9AC7F"/>
<path d="M149.877 63.5103H146.509C145.756 63.5103 145.162 62.901 145.162 62.1297V62.0481C145.162 61.2765 145.756 60.6675 146.509 60.6675H149.877C150.63 60.6675 151.224 61.2765 151.224 62.0481V62.1297C151.224 62.901 150.59 63.5103 149.877 63.5103Z" fill="#858A8E"/>
<path d="M131.452 82.0294H165.647V77.887C165.647 69.399 158.911 62.4949 150.63 62.5358H146.43C138.149 62.5358 131.452 69.399 131.452 77.9276V82.0294Z" fill="#383F45"/>
<path d="M149.719 71.5923H146.866C144.29 71.5923 142.23 73.704 142.23 76.3437V79.6332H154.355V76.3437C154.355 73.704 152.294 71.5923 149.719 71.5923Z" fill="#3A0909"/>
<path d="M142.468 77.1154H154.394V81.2172H142.468C141.358 81.2172 140.447 80.2832 140.447 79.146C140.487 78.0088 141.358 77.1154 142.468 77.1154Z" fill="#858A8E"/>
<path d="M144.409 79.227C144.409 79.7958 143.973 80.2425 143.419 80.2425C142.864 80.2425 142.428 79.7958 142.428 79.227C142.428 78.6586 142.864 78.2119 143.419 78.2119C143.973 78.2119 144.409 78.6586 144.409 79.227Z" fill="#FF553C"/>
<path d="M144.409 79.227C144.409 79.7958 143.973 80.2425 143.419 80.2425C142.864 80.2425 142.428 79.7958 142.428 79.227C142.428 78.6586 142.864 78.2119 143.419 78.2119C143.973 78.2119 144.409 78.6586 144.409 79.227Z" fill="#211F1D"/>
<path d="M147.625 80.2244C148.165 80.1305 148.528 79.6066 148.436 79.0536C148.345 78.5006 147.833 78.1289 147.294 78.2224C146.755 78.3163 146.392 78.8407 146.483 79.3933C146.575 79.9462 147.086 80.3183 147.625 80.2244Z" fill="#211F1D"/>
<path d="M152.413 79.227C152.413 79.7958 151.977 80.2425 151.422 80.2425C150.868 80.2425 150.432 79.7958 150.432 79.227C150.432 78.6586 150.868 78.2119 151.422 78.2119C151.977 78.2119 152.413 78.6586 152.413 79.227Z" fill="#211F1D"/>
<path d="M142.349 86.0095C142.349 86.8623 141.675 87.5123 140.883 87.5123C140.051 87.5123 139.417 86.8217 139.417 86.0095C139.417 85.1567 140.09 84.5067 140.883 84.5067C141.675 84.4661 142.349 85.1567 142.349 86.0095Z" fill="#111110"/>
<path d="M157.128 86.0095C157.128 86.8623 156.455 87.5123 155.662 87.5123C154.83 87.5123 154.196 86.8217 154.196 86.0095C154.196 85.1567 154.87 84.5067 155.662 84.5067C156.455 84.4661 157.128 85.1567 157.128 86.0095Z" fill="#111110"/>
<path d="M154.434 77.0748C154.434 77.0748 157.366 75.288 157.128 72.2824L153.364 73.3791L154.156 70.049L150.828 73.5823L154.434 77.0748Z" fill="#3A0909"/>
<path d="M29.4661 26.5148V30.9663H40.0647V37.5694H29.4661V45.8789H20.9001V19.9117H41.5529V26.5148H29.4661ZM51.4538 27.776C52.9057 26.0696 55.0472 25.2164 57.8783 25.2164V32.6356C57.225 32.5367 56.62 32.4872 56.0635 32.4872C53.2566 32.4872 51.8531 33.9463 51.8531 36.8646V45.8789H43.6501V25.5874H51.4538V27.776ZM70.5158 46.2498C68.3139 46.2498 66.3297 45.8047 64.5632 44.9144C62.821 43.9994 61.4538 42.7505 60.4617 41.1677C59.4696 39.5602 58.9736 37.7425 58.9736 35.7146C58.9736 33.6867 59.4696 31.8813 60.4617 30.2986C61.4538 28.6911 62.821 27.4422 64.5632 26.5519C66.3297 25.6616 68.3139 25.2164 70.5158 25.2164C72.742 25.2164 74.7262 25.6616 76.4684 26.5519C78.2348 27.4422 79.602 28.6911 80.5699 30.2986C81.562 31.8813 82.058 33.6867 82.058 35.7146C82.058 37.7425 81.562 39.5602 80.5699 41.1677C79.602 42.7505 78.2348 43.9994 76.4684 44.9144C74.7262 45.8047 72.742 46.2498 70.5158 46.2498ZM70.5158 39.7209C71.4595 39.7209 72.2338 39.3747 72.8388 38.6823C73.4437 37.9651 73.7462 36.9758 73.7462 35.7146C73.7462 34.4533 73.4437 33.4764 72.8388 32.784C72.2338 32.0915 71.4595 31.7453 70.5158 31.7453C69.5721 31.7453 68.7978 32.0915 68.1929 32.784C67.5879 33.4764 67.2855 34.4533 67.2855 35.7146C67.2855 36.9758 67.5879 37.9651 68.1929 38.6823C68.7978 39.3747 69.5721 39.7209 70.5158 39.7209ZM98.4178 25.2164C100.862 25.2164 102.822 25.9707 104.298 27.4793C105.798 28.9878 106.548 31.2631 106.548 34.3049V45.8789H98.3453V35.7517C98.3453 33.427 97.5346 32.2646 95.9134 32.2646C94.9939 32.2646 94.2438 32.5985 93.663 33.2662C93.1065 33.9092 92.8282 34.9356 92.8282 36.3452V45.8789H84.6253V25.5874H92.429V27.5905C93.2033 26.7992 94.0986 26.2056 95.1149 25.8099C96.1312 25.4142 97.2322 25.2164 98.4178 25.2164ZM124.738 45.1741C123.504 45.8912 121.823 46.2498 119.693 46.2498C116.91 46.2498 114.769 45.5697 113.269 44.2096C111.768 42.8246 111.018 40.7596 111.018 38.0145V32.8211H108.296V26.7002H111.018V21.0246H119.221V26.7002H123.286V32.8211H119.221V37.9403C119.221 38.5586 119.379 39.0408 119.693 39.3871C120.008 39.7333 120.419 39.9064 120.927 39.9064C121.629 39.9064 122.246 39.7209 122.778 39.35L124.738 45.1741ZM126.27 32.005H137.158V38.3113H126.27V32.005ZM161.973 39.2758V45.8789H140.848V19.9117H161.501V26.5148H149.269V29.5566H160.013V35.863H149.269V39.2758H161.973ZM178.808 25.2164C181.252 25.2164 183.212 25.9707 184.688 27.4793C186.189 28.9878 186.939 31.2631 186.939 34.3049V45.8789H178.736V35.7517C178.736 33.427 177.925 32.2646 176.304 32.2646C175.385 32.2646 174.634 32.5985 174.054 33.2662C173.497 33.9092 173.219 34.9356 173.219 36.3452V45.8789H165.016V25.5874H172.82V27.5905C173.594 26.7992 174.489 26.2056 175.506 25.8099C176.522 25.4142 177.623 25.2164 178.808 25.2164ZM212.815 18.3536V45.8789H205.011V44.2096C203.826 45.5697 202.011 46.2498 199.567 46.2498C197.825 46.2498 196.216 45.8294 194.74 44.9886C193.288 44.123 192.126 42.8865 191.255 41.279C190.408 39.6715 189.985 37.8167 189.985 35.7146C189.985 33.6125 190.408 31.77 191.255 30.1873C192.126 28.5798 193.288 27.3556 194.74 26.5148C196.216 25.6492 197.825 25.2164 199.567 25.2164C201.769 25.2164 203.451 25.7976 204.612 26.9599V18.3536H212.815ZM201.527 39.7209C202.471 39.7209 203.245 39.3747 203.85 38.6823C204.455 37.9651 204.757 36.9758 204.757 35.7146C204.757 34.4533 204.455 33.4764 203.85 32.784C203.245 32.0915 202.471 31.7453 201.527 31.7453C200.583 31.7453 199.809 32.0915 199.204 32.784C198.599 33.4764 198.297 34.4533 198.297 35.7146C198.297 36.9758 198.599 37.9651 199.204 38.6823C199.809 39.3747 200.583 39.7209 201.527 39.7209Z" fill="white"/>
<path d="M36.3065 100.294C45.773 100.294 53.4474 92.4503 53.4474 82.7752C53.4474 73.1001 45.773 65.2566 36.3065 65.2566C26.8398 65.2566 19.1655 73.1001 19.1655 82.7752C19.1655 92.4503 26.8398 100.294 36.3065 100.294Z" fill="#F4F4F4"/>
<path d="M36.3064 66.8617C27.8257 66.8617 20.9603 73.9242 20.9603 82.546C20.9603 91.1677 27.8257 98.2299 36.3064 98.2299C44.7423 98.2299 51.6526 91.2133 51.6526 82.546C51.6076 73.9242 44.7423 66.8617 36.3064 66.8617Z" fill="white"/>
<path d="M36.3065 100.706C26.4796 100.706 18.4924 92.5434 18.4924 82.5C18.4924 72.4566 26.4796 64.2936 36.3065 64.2936C46.1333 64.2936 54.1204 72.4566 54.1204 82.5C54.0754 92.5893 46.1333 100.706 36.3065 100.706ZM36.3065 66.8617C27.8257 66.8617 20.9604 73.9242 20.9604 82.546C20.9604 91.1677 27.8257 98.2302 36.3065 98.2302C44.7424 98.2302 51.6527 91.2133 51.6527 82.546C51.6077 73.9242 44.7424 66.8617 36.3065 66.8617Z" fill="#B14935"/>
<path d="M36.3514 85.9855C35.9924 85.9855 35.6783 85.8019 35.5437 85.4808L31.5053 77.3637C31.2809 76.9051 31.4604 76.3088 31.9091 76.0797C32.3579 75.8501 32.9412 76.0337 33.1655 76.4924L37.204 84.6094C37.4283 85.0681 37.2489 85.6644 36.8002 85.8935C36.6655 85.9395 36.486 85.9855 36.3514 85.9855Z" fill="#211F1D"/>
<path d="M33.0308 84.8845C32.8065 84.8845 32.627 84.7014 32.5821 84.4718C32.5372 84.1967 32.7167 83.9676 32.9411 83.9216L48.0627 81.2619C48.3319 81.2159 48.5565 81.3994 48.6015 81.6286C48.6461 81.9037 48.4665 82.1332 48.2423 82.1788L33.1206 84.8389C33.0757 84.8845 33.0757 84.8845 33.0308 84.8845Z" fill="#211F1D"/>
</g>
<defs>
<clipPath id="clip0_9_1000">
<rect width="245" height="165" fill="white"/>
</clipPath>
</defs>
</svg>
