<svg width="245" height="165" viewBox="0 0 245 165" fill="none" xmlns="http://www.w3.org/2000/svg">
<g clip-path="url(#clip0_9_1040)">
<path d="M245 0H0V165H245V0Z" fill="white"/>
<path d="M245 0H0V165H245V0Z" fill="white"/>
<path d="M259.745 -6.18262H-9.07407V175.047H259.745V-6.18262Z" fill="#0D0F29"/>
<path d="M29.466 26.5148V30.9663H40.0647V37.5694H29.466V45.8789H20.9001V19.9117H41.5528V26.5148H29.466ZM65.3553 25.5874V45.8789H57.5516V43.9499C56.8256 44.7165 55.9787 45.2977 55.0108 45.6934C54.0429 46.0644 53.0145 46.2498 51.9256 46.2498C49.4091 46.2498 47.3886 45.4708 45.8642 43.9128C44.3397 42.33 43.5775 39.9559 43.5775 36.7904V25.5874H51.7804V35.3436C51.7804 36.7285 51.9982 37.7178 52.4338 38.3113C52.8693 38.9048 53.5106 39.2016 54.3575 39.2016C55.156 39.2016 55.8214 38.8801 56.3538 38.2371C56.8861 37.5694 57.1523 36.5307 57.1523 35.121V25.5874H65.3553ZM68.994 18.3536H77.1969V45.8789H68.994V18.3536ZM80.8326 18.3536H89.0356V45.8789H80.8326V18.3536ZM113.281 46.4724C111.176 46.4724 109.119 46.2375 107.11 45.7676C105.126 45.273 103.493 44.6176 102.21 43.8015L104.969 37.421C106.179 38.1382 107.534 38.7194 109.034 39.1645C110.534 39.5849 111.974 39.7951 113.353 39.7951C114.539 39.7951 115.386 39.6838 115.894 39.4613C116.402 39.214 116.656 38.8554 116.656 38.3855C116.656 37.8414 116.318 37.4334 115.64 37.1613C114.987 36.8893 113.898 36.5925 112.373 36.271C110.413 35.8506 108.78 35.4054 107.473 34.9356C106.167 34.4409 105.029 33.6496 104.061 32.5614C103.094 31.4485 102.61 29.9523 102.61 28.0728C102.61 26.4406 103.057 24.9567 103.953 23.6213C104.848 22.2858 106.179 21.2348 107.945 20.4681C109.736 19.7015 111.901 19.3181 114.442 19.3181C116.184 19.3181 117.89 19.516 119.56 19.9117C121.254 20.2826 122.742 20.8391 124.024 21.581L121.447 27.9244C118.955 26.6384 116.596 25.9954 114.37 25.9954C112.168 25.9954 111.067 26.5395 111.067 27.6276C111.067 28.147 111.393 28.5427 112.047 28.8147C112.7 29.062 113.777 29.3341 115.277 29.6308C117.213 30.0018 118.846 30.4346 120.177 30.9292C121.508 31.3991 122.657 32.1781 123.625 33.2662C124.617 34.3544 125.113 35.8382 125.113 37.7178C125.113 39.35 124.666 40.8338 123.77 42.1693C122.875 43.48 121.532 44.5311 119.741 45.3224C117.975 46.0891 115.821 46.4724 113.281 46.4724ZM142.036 45.1741C140.802 45.8912 139.12 46.2498 136.991 46.2498C134.208 46.2498 132.066 45.5697 130.566 44.2096C129.066 42.8246 128.316 40.7596 128.316 38.0145V32.8211H125.594V26.7002H128.316V21.0246H136.519V26.7002H140.584V32.8211H136.519V37.9403C136.519 38.5586 136.676 39.0409 136.991 39.3871C137.305 39.7333 137.716 39.9064 138.225 39.9064C138.926 39.9064 139.543 39.7209 140.076 39.35L142.036 45.1741ZM152.996 25.2164C156.48 25.2164 159.142 26.0201 160.981 27.6276C162.82 29.2104 163.739 31.6587 163.739 34.9727V45.8789H156.117V43.208C155.173 45.2359 153.298 46.2498 150.491 46.2498C148.918 46.2498 147.575 45.9778 146.462 45.4337C145.373 44.8649 144.539 44.1106 143.958 43.1709C143.401 42.2064 143.123 41.1306 143.123 39.9435C143.123 37.9403 143.873 36.4194 145.373 35.3807C146.874 34.342 149.148 33.8227 152.197 33.8227H155.5C155.234 32.2399 153.988 31.4485 151.762 31.4485C150.866 31.4485 149.959 31.5969 149.039 31.8937C148.12 32.1657 147.333 32.549 146.68 33.0437L144.067 27.5164C145.204 26.7992 146.571 26.2427 148.168 25.847C149.79 25.4266 151.399 25.2164 152.996 25.2164ZM152.959 41.2048C153.54 41.2048 154.06 41.044 154.52 40.7225C154.98 40.401 155.319 39.9188 155.536 39.2758V37.8661H153.504C151.834 37.8661 150.999 38.4349 150.999 39.5726C150.999 40.0424 151.169 40.4381 151.508 40.7596C151.871 41.0564 152.354 41.2048 152.959 41.2048ZM178.31 46.2498C176.06 46.2498 174.039 45.8047 172.249 44.9144C170.482 44.0241 169.091 42.7752 168.075 41.1677C167.082 39.5602 166.586 37.7425 166.586 35.7146C166.586 33.6867 167.082 31.8813 168.075 30.2986C169.091 28.6911 170.482 27.4422 172.249 26.5519C174.039 25.6616 176.06 25.2164 178.31 25.2164C180.73 25.2164 182.799 25.7481 184.517 26.8115C186.235 27.8749 187.42 29.3464 188.074 31.226L181.722 34.4162C180.948 32.6356 179.798 31.7453 178.274 31.7453C177.306 31.7453 176.495 32.0915 175.842 32.784C175.213 33.4764 174.898 34.4533 174.898 35.7146C174.898 37.0006 175.213 37.9898 175.842 38.6823C176.495 39.3747 177.306 39.7209 178.274 39.7209C179.798 39.7209 180.948 38.8306 181.722 37.05L188.074 40.2403C187.42 42.1198 186.235 43.5913 184.517 44.6547C182.799 45.7181 180.73 46.2498 178.31 46.2498ZM199.479 39.6468L198.172 41.0935V45.8789H189.97V18.3536H198.172V31.4856L203.871 25.5874H213.562L205.359 34.3791L214.215 45.8789H204.307L199.479 39.6468Z" fill="white"/>
<path d="M136.873 129.32H55.1874C54.1991 129.32 53.3756 128.479 53.3756 127.469V79.0493C53.3756 78.0393 54.1991 77.1976 55.1874 77.1976H136.928C137.916 77.1976 138.74 78.0393 138.74 79.0493V127.469C138.74 128.479 137.916 129.32 136.873 129.32Z" fill="#969696"/>
<path d="M105.694 136.108C105.364 135.267 105.254 134.369 105.254 133.472V129.32H96.0869H95.6476H87.4132V133.472C87.4132 134.369 87.3032 135.267 86.9739 136.108C86.5349 137.287 85.7115 138.577 84.229 138.577H95.6476H96.0869H108.439C106.956 138.521 106.133 137.231 105.694 136.108Z" fill="#9B9B9B"/>
<path d="M244.088 144.132H41.1691C40.6481 144.132 40.2571 143.627 40.2571 142.954V139.7C40.2571 139.027 40.6481 138.522 41.1691 138.522H244.088C244.609 138.522 245 139.027 245 139.7V142.954C245 143.627 244.609 144.132 244.088 144.132Z" fill="#FFC107"/>
<path d="M62.9831 144.132H57.1092V214.474L62.9831 213.987V144.132Z" fill="#211F1D"/>
<path d="M223.665 144.132H217.791L217.608 213.301L221.891 214.474L223.665 144.132Z" fill="#211F1D"/>
<path d="M136.873 121.017H55.1874C54.1991 121.017 53.3756 120.175 53.3756 119.165V70.7456C53.3756 69.7355 54.1991 68.8939 55.1874 68.8939H136.928C137.916 68.8939 138.74 69.7355 138.74 70.7456V119.109C138.74 120.175 137.916 121.017 136.873 121.017Z" fill="#615E5E"/>
<path d="M135.557 71.6993H56.6706V117.538H135.557V71.6993Z" fill="#FAFAFA"/>
<path d="M226.519 129.32H144.833C143.845 129.32 143.021 128.479 143.021 127.469V79.0493C143.021 78.0393 143.845 77.1976 144.833 77.1976H226.574C227.562 77.1976 228.385 78.0393 228.385 79.0493V127.469C228.385 128.479 227.562 129.32 226.519 129.32Z" fill="#969696"/>
<path d="M195.339 136.108C195.01 135.267 194.9 134.369 194.9 133.472V129.32H185.732H185.293H177.059V133.472C177.059 134.369 176.949 135.267 176.619 136.108C176.18 137.287 175.357 138.577 173.874 138.577H185.293H185.732H198.084C196.547 138.521 195.778 137.231 195.339 136.108Z" fill="#9B9B9B"/>
<path d="M226.519 121.017H144.833C143.845 121.017 143.021 120.175 143.021 119.165V70.7456C143.021 69.7355 143.845 68.8939 144.833 68.8939H226.574C227.562 68.8939 228.385 69.7355 228.385 70.7456V119.109C228.385 120.175 227.562 121.017 226.519 121.017Z" fill="#615E5E"/>
<path d="M225.148 71.6993H146.262V117.538H225.148V71.6993Z" fill="#A2CAE3"/>
<path d="M209.173 111.758H163.499C161.577 111.758 160.04 110.188 160.04 108.224V80.6198C160.04 78.656 161.577 77.0852 163.499 77.0852H209.173C211.094 77.0852 212.631 78.656 212.631 80.6198V108.224C212.631 110.188 211.094 111.758 209.173 111.758Z" fill="#FAFAFA"/>
<path d="M187.708 91.2794H178.65V93.2992H187.708V91.2794Z" fill="#A2CAE3"/>
<path d="M206.756 100.256H191.33V102.276H206.756V100.256Z" fill="#A2CAE3"/>
<path d="M206.701 104.801H199.016V106.821H206.701V104.801Z" fill="#A2CAE3"/>
<path d="M187.489 100.256H178.65V102.276H187.489V100.256Z" fill="#A2CAE3"/>
<path d="M191.331 95.7681H178.65V97.7879H191.331V95.7681Z" fill="#A2CAE3"/>
<path d="M183.865 104.801H178.65V106.821H183.865V104.801Z" fill="#A2CAE3"/>
<path d="M187.434 106.821H195.449V104.801H187.434V106.821Z" fill="#A2CAE3"/>
<path d="M202.97 95.7681H195.449V97.7879H202.97V95.7681Z" fill="#A2CAE3"/>
<path d="M199.016 91.2794H191.33V93.2992H199.016V91.2794Z" fill="#A2CAE3"/>
<path d="M170.086 80.8435H167.177V82.8633H170.086V80.8435Z" fill="#A2CAE3"/>
<path d="M174.862 80.8435H171.953V82.8633H174.862V80.8435Z" fill="#A2CAE3"/>
<path d="M179.584 80.8435H176.674V82.8633H179.584V80.8435Z" fill="#A2CAE3"/>
<path d="M170.745 91.2794H167.177V93.2992H170.745V91.2794Z" fill="#A2CAE3"/>
<path d="M170.745 95.7681H167.177V97.7879H170.745V95.7681Z" fill="#A2CAE3"/>
<path d="M170.745 100.256H167.177V102.276H170.745V100.256Z" fill="#A2CAE3"/>
<path d="M170.745 104.801H167.177V106.821H170.745V104.801Z" fill="#A2CAE3"/>
<path d="M101.795 109.066C101.85 109.122 101.96 109.066 102.015 109.01L103.497 107.495L104.595 109.683C104.65 109.739 104.705 109.795 104.76 109.795C104.815 109.795 104.815 109.795 104.869 109.795L105.748 109.29C105.803 109.29 105.858 109.234 105.858 109.178C105.858 109.122 105.858 109.066 105.858 109.01L104.815 106.99H106.791C106.901 106.99 106.956 106.934 107.011 106.822C107.065 106.709 107.011 106.653 106.956 106.597L101.96 101.94C101.905 101.884 101.795 101.884 101.74 101.884C101.686 101.94 101.631 101.997 101.631 102.109V108.898C101.631 108.954 101.686 109.01 101.795 109.066Z" fill="black"/>
<path d="M76.6529 81.6302H64.2463V88.0826H76.6529V81.6302Z" fill="#A2CAE3"/>
<path d="M113.544 81.6302H79.7282V88.0826H113.544V81.6302Z" fill="#A2CAE3"/>
<path d="M113.544 91.2806H64.2463V93.1323H113.544V91.2806Z" fill="#A2CAE3"/>
<path d="M113.544 96.2743H64.2463V98.126H113.544V96.2743Z" fill="#A2CAE3"/>
<path d="M89.828 101.323H64.2463V103.175H89.828V101.323Z" fill="#A2CAE3"/>
<path d="M89.828 106.317H64.2463V108.169H89.828V106.317Z" fill="#A2CAE3"/>
<path d="M163.417 136.054L118.292 139.027C114.394 139.308 111.045 136.278 110.825 132.294C110.551 128.311 113.516 124.888 117.413 124.664L162.538 121.69C164.899 121.522 166.93 123.373 167.095 125.786L167.424 131.396C167.588 133.809 165.832 135.885 163.417 136.054Z" fill="#FBC39D"/>
<path d="M134.651 108.673L112.308 124.72C109.344 126.851 108.575 131.003 110.552 134.089C112.034 136.446 114.834 137.624 117.524 137.063C127.35 135.043 149.967 130.33 149.748 129.545C149.583 128.927 147.058 119.782 145.026 112.432C143.709 107.888 138.439 105.924 134.651 108.673Z" fill="black"/>
<path d="M149.804 136.054L194.929 139.027C198.826 139.308 202.175 136.278 202.394 132.294C202.669 128.311 199.704 124.888 195.807 124.664L150.682 121.69C148.321 121.522 146.29 123.373 146.125 125.786L145.796 131.396C145.631 133.809 147.443 135.885 149.804 136.054Z" fill="#FBC39D"/>
<path d="M178.624 108.673L200.967 124.72C203.932 126.851 204.7 131.003 202.724 134.089C201.241 136.446 198.442 137.624 195.752 137.063C185.926 135.043 163.308 130.33 163.528 129.545C163.693 128.927 166.218 119.782 168.249 112.432C169.511 107.888 174.781 105.924 178.624 108.673Z" fill="black"/>
<path d="M139.153 79.2183C136.738 79.2183 134.762 81.2941 134.762 83.875C134.762 86.4558 136.738 88.5321 139.153 88.5321C141.569 88.5321 143.545 86.4558 143.545 83.875C143.49 81.2941 141.569 79.2183 139.153 79.2183Z" fill="#F9AC7F"/>
<path d="M172.201 79.2183C169.786 79.2183 167.81 81.2941 167.81 83.875C167.81 86.4558 169.786 88.5321 172.201 88.5321C174.617 88.5321 176.593 86.4558 176.593 83.875C176.538 81.2941 174.617 79.2183 172.201 79.2183Z" fill="#F9AC7F"/>
<path d="M154.306 108.73C154.745 108.786 155.184 108.842 155.678 108.842C157.051 108.842 158.423 108.674 159.74 108.337C159.74 108.337 159.74 108.337 159.74 108.281C166.877 106.373 172.202 99.4723 172.202 91.281V70.7461C172.202 61.0396 164.791 62.6108 155.733 62.6108C146.62 62.6108 139.264 61.0961 139.264 70.7461V91.281C139.154 100.482 145.797 108.001 154.306 108.73Z" fill="#FBC39D"/>
<path d="M168.797 84.5477V90.1025H162.923C162.923 90.1025 161.496 86.1189 155.622 86.1189C149.748 86.1189 148.321 90.1025 148.321 90.1025H142.447V84.5477C142.447 82.3598 140.471 81.6303 139.098 81.4058V91.2806C139.098 100.482 145.741 108 154.25 108.729L154.195 108.786C154.634 108.842 155.128 108.842 155.567 108.842C156.007 108.842 156.501 108.842 156.94 108.786L156.885 108.729C165.339 108 172.037 100.482 172.037 91.2806V81.4058C170.774 81.6303 168.797 82.3598 168.797 84.5477Z" fill="#B28204"/>
<path d="M167.754 55.8778C163.253 55.2043 156.226 55.1483 151.066 59.4684C150.956 59.5808 150.846 59.6929 150.737 59.805H146.674C142.502 59.805 139.098 62.8349 139.098 66.5379V70.353V79.1057V89.7658C139.867 89.7658 140.471 89.0923 140.471 88.3071V73.3265C140.471 73.3265 140.745 68.5577 144.972 68.5577H154.579H154.689H165.614C170.115 68.5577 170.664 72.7094 170.719 73.2704V88.2507C170.719 89.0923 171.323 89.7094 172.091 89.7094V79.0493V70.297V66.8745L172.146 61.0396C172.201 58.4587 170.335 56.2144 167.754 55.8778Z" fill="#B28204"/>
<path d="M171.927 66.0325H140.032V94.2537H171.927V66.0325Z" fill="#B38204"/>
<path d="M164.625 196.928H146.619C134.048 196.928 123.837 185.651 123.837 171.793L129.546 121.466C131.522 108.057 143.654 99.4158 156.006 99.4158C168.468 99.4158 180.709 108.225 182.521 121.859L187.517 171.793C187.407 185.651 177.196 196.928 164.625 196.928Z" fill="#F16A51"/>
<path d="M159.984 214.057L153.046 211.973L149.966 211.139V142.933C149.966 141.979 150.625 141.215 151.449 141.215H159.903C160.726 141.215 161.385 141.979 161.385 142.933L161.274 214.474L159.984 214.057Z" fill="#211F1D"/>
<path d="M162.758 147.443H148.101C146.509 147.443 145.246 146.152 145.246 144.525V137.905C145.246 136.278 146.509 134.987 148.101 134.987H162.758C164.35 134.987 165.613 136.278 165.613 137.905V144.525C165.668 146.152 164.35 147.443 162.758 147.443Z" fill="#211F1D"/>
</g>
<defs>
<clipPath id="clip0_9_1040">
<rect width="245" height="165" fill="white"/>
</clipPath>
</defs>
</svg>
