<svg width="245" height="165" viewBox="0 0 245 165" fill="none" xmlns="http://www.w3.org/2000/svg">
<g clip-path="url(#clip0_8_2)">
<path d="M245 0H0V165H245V0Z" fill="white"/>
<path d="M245 0H0V165H245V0Z" fill="#332E2F"/>
<path d="M27.7833 52.5589C25.1791 52.5589 22.813 52.1369 20.6851 51.293C18.589 50.4166 16.8581 49.1507 15.4925 47.4953L21.5426 40.192C22.4319 41.3281 23.3053 42.172 24.1628 42.7238C25.0203 43.2756 25.9095 43.5515 26.8305 43.5515C28.0056 43.5515 28.8949 43.1944 29.4983 42.4804C30.1335 41.7663 30.4511 40.7113 30.4511 39.3156V26.3644H19.113V17.6979H41.551V38.634C41.551 43.2756 40.3759 46.7649 38.0257 49.102C35.7073 51.4066 32.2931 52.5589 27.7833 52.5589ZM58.0446 24.6604C62.6179 24.6604 66.1115 25.7153 68.5252 27.8251C70.9389 29.9025 72.1457 33.1159 72.1457 37.4654V51.7799H62.1416V48.2743C60.9029 50.9359 58.4416 52.2667 54.7575 52.2667C52.6932 52.2667 50.9305 51.9097 49.4696 51.1956C48.0404 50.449 46.9447 49.459 46.1825 48.2256C45.4521 46.9597 45.0868 45.5477 45.0868 43.9897C45.0868 41.3605 46.0714 39.3643 48.0404 38.001C50.0095 36.6377 52.9949 35.9561 56.9966 35.9561H61.3317C60.9823 33.8787 59.3467 32.84 56.4249 32.84C55.2498 32.84 54.0588 33.0348 52.852 33.4243C51.6451 33.7813 50.6129 34.2844 49.7554 34.9336L46.3254 27.679C47.8181 26.7377 49.6125 26.0074 51.7086 25.4881C53.8365 24.9363 55.9485 24.6604 58.0446 24.6604ZM57.997 45.6451C58.7592 45.6451 59.442 45.4341 60.0454 45.0122C60.6489 44.5902 61.0935 43.9572 61.3793 43.1133V41.2631H58.7116C56.5202 41.2631 55.4245 42.0097 55.4245 43.5028C55.4245 44.1195 55.6468 44.6389 56.0914 45.0608C56.5678 45.4503 57.203 45.6451 57.997 45.6451ZM105.345 25.1472L94.8649 51.7799H83.7174L73.2369 25.1472H84.2891L89.5294 39.413L95.1508 25.1472H105.345ZM117.733 24.6604C122.306 24.6604 125.8 25.7153 128.213 27.8251C130.627 29.9025 131.834 33.1159 131.834 37.4654V51.7799H121.83V48.2743C120.591 50.9359 118.13 52.2667 114.446 52.2667C112.381 52.2667 110.619 51.9097 109.158 51.1956C107.729 50.449 106.633 49.459 105.871 48.2256C105.14 46.9597 104.775 45.5477 104.775 43.9897C104.775 41.3605 105.759 39.3643 107.729 38.001C109.698 36.6377 112.683 35.9561 116.685 35.9561H121.02C120.67 33.8787 119.035 32.84 116.113 32.84C114.938 32.84 113.747 33.0348 112.54 33.4243C111.333 33.7813 110.301 34.2844 109.444 34.9336L106.014 27.679C107.506 26.7377 109.301 26.0074 111.397 25.4881C113.525 24.9363 115.637 24.6604 117.733 24.6604ZM117.685 45.6451C118.447 45.6451 119.13 45.4341 119.734 45.0122C120.337 44.5902 120.782 43.9572 121.067 43.1133V41.2631H118.4C116.208 41.2631 115.113 42.0097 115.113 43.5028C115.113 44.1195 115.335 44.6389 115.78 45.0608C116.256 45.4503 116.891 45.6451 117.685 45.6451Z" fill="white"/>
<path d="M220.837 139.356C220.426 149.854 198.546 158.2 171.89 158.096C145.234 157.99 123.97 149.382 124.33 138.883C124.741 128.385 146.62 120.038 173.277 120.144C199.932 120.301 221.247 128.91 220.837 139.356Z" fill="#A2B2B2"/>
<path d="M220.22 138.463C219.861 148.699 198.186 156.888 171.838 156.731C145.49 156.626 124.432 148.227 124.792 137.991C125.152 127.755 146.826 119.566 173.174 119.724C199.573 119.829 220.58 128.227 220.22 138.463Z" fill="white"/>
<path opacity="0.4" d="M202.758 135.156C202.501 141.508 189.096 146.547 172.814 146.494C156.482 146.39 143.487 141.193 143.693 134.894C143.95 128.542 157.355 123.503 173.636 123.556C189.969 123.608 203.014 128.805 202.758 135.156Z" fill="#404041"/>
<path d="M147.237 114.684C146.929 114.422 146.569 114.212 146.209 114.054C145.593 113.792 144.72 113.477 144.001 113.425C142.717 113.267 141.433 113.11 140.149 112.899C137.324 112.48 134.602 111.902 131.88 111.167C127.103 109.855 117.91 107.283 115.907 103.084C114.161 99.5665 117.088 94.9998 122.173 95.9972C124.792 96.5219 126.949 98.8841 129.62 99.5665C139.224 102.138 133.215 90.5379 129.414 88.3855C125.871 86.3383 120.889 86.2861 116.78 87.3356C106.148 90.0653 104.556 98.8841 107.638 105.446C110.565 111.745 117.961 115.524 125.254 117.991C128.747 119.146 132.445 119.986 136.143 120.564C139.943 121.141 143.847 121.823 147.237 119.986C149.599 118.569 149.548 115.997 147.237 114.684Z" fill="#DDDDDC"/>
<path d="M127.411 109.855C127.771 110.957 127.822 112.112 127.463 113.214C127.309 113.687 127.052 114.107 126.744 114.422C125.614 115.157 124.073 115.577 122.43 115.682C120.735 115.577 118.886 115.104 117.191 114.579C119.707 115.944 122.481 117.046 125.203 117.991C128.644 119.146 132.24 119.933 135.886 120.511C136.297 117.624 134.345 114.212 132.907 111.955C132.804 111.745 132.65 111.535 132.496 111.325C132.291 111.272 132.085 111.22 131.829 111.167C130.647 110.8 129.055 110.38 127.411 109.855Z" fill="#C8D8D8"/>
<path opacity="0.5" d="M117.448 105.026C116.78 104.396 116.215 103.766 115.907 103.083C114.161 99.5665 117.088 94.9998 122.173 95.9972C124.792 96.5219 126.949 98.8841 129.62 99.5665C130.339 99.7763 132.445 100.354 133.113 99.7763C133.729 99.2516 132.907 98.2542 132.804 97.6244C132.291 95.2096 131.777 93.1098 130.647 90.7477C129.877 89.1205 128.85 85.4986 125.973 85.6037C123.765 85.6559 123.406 88.2282 123.303 89.5405C123.2 91.0101 123.662 92.06 121.505 92.6376C120.221 93.0051 118.834 92.7424 117.55 93.1624C114.982 94.0025 113.39 96.1019 113.082 98.3068C112.774 100.774 114.674 103.871 117.448 105.026Z" fill="#A4BABA"/>
<path d="M221.196 83.7137C220.169 80.3017 216.779 76.9422 213.954 75.0526C209.075 71.8507 203.117 70.5381 197.519 69.3309C185.09 66.6538 172.249 66.0765 159.614 67.3888C149.856 68.3861 138.659 69.6458 130.698 76.1025C127.155 78.9894 124.998 83.1364 124.381 87.6505C124.022 90.2755 124.535 93.0051 125.152 95.5246C125.973 98.9366 126.898 102.401 127.668 105.813C130.698 118.936 135.989 131.692 150.421 139.093C163.929 145.97 181.289 145.76 194.899 139.303C200.703 136.574 205.788 132.899 209.229 128.175C212.362 123.871 214.57 119.251 216.522 114.579C220.374 105.078 224.278 93.7397 221.196 83.7137Z" fill="#DDDDDC"/>
<path opacity="0.3" d="M217.138 113.057C218.217 110.38 219.244 107.545 220.117 104.658C171.325 132.636 134.756 109.278 127.103 103.661C127.257 104.396 127.463 105.131 127.617 105.865C128.079 107.86 128.593 109.855 129.158 111.85C139.738 118.831 173.225 136.574 217.138 113.057Z" fill="white"/>
<path opacity="0.3" d="M120.94 89.2781C115.958 88.0706 110.719 91.1677 109.127 94.9473C108.151 97.2569 107.946 99.619 108.459 102.034C108.87 104.028 110.206 106.653 112.26 107.86C113.03 108.333 114.058 107.703 114.058 107.02C114.109 105.445 112.62 103.923 112.003 102.453C111.182 100.459 111.387 98.3068 112.106 96.3121C112.825 94.3696 114.469 92.9 116.729 92.1125C118.321 91.5352 119.913 91.2728 121.248 90.3276C121.711 90.0127 121.454 89.4354 120.94 89.2781Z" fill="white"/>
<path opacity="0.2" d="M196.8 102.768C196.8 102.768 212.773 100.196 220.066 92.5325C220.066 92.5325 214.981 138.306 178.721 141.035C178.721 141.088 192.177 131.219 196.8 102.768Z" fill="white"/>
<path d="M128.284 86.916C128.439 87.3356 131.212 84.6064 131.418 84.2389C132.137 82.6638 132.958 82.5066 135.218 81.299C137.684 79.9867 141.176 79.1471 144.514 78.5172C152.116 77.1524 160.436 75.3675 168.5 75.1577C177.848 74.9475 186.784 75.315 195.772 76.7849C200.6 77.5724 205.223 78.727 209.537 80.0393C211.592 80.6692 213.492 81.4567 215.084 82.3489C216.625 83.2415 216.727 84.2389 216.83 85.3409C216.882 86.0759 219.398 87.3356 220.117 86.4959C220.117 86.4959 226.64 69.5407 175.177 69.5407C123.148 69.5407 127.566 85.6559 128.284 86.916Z" fill="#CCCBCB"/>
<path d="M217.755 84.9213C215.135 90.643 204.093 93.1624 197.365 96.207C197.159 96.3121 197.056 96.4694 197.056 96.5745C199.213 96.1019 201.319 95.5771 203.374 94.8947C208.869 93.1624 214.519 91.1152 217.96 88.0706C221.401 85.026 220.477 82.1916 217.498 79.7769C218.371 81.4567 218.576 83.189 217.755 84.9213Z" fill="#878F8C"/>
<path d="M220.169 85.1311C220.169 92.7424 199.676 98.8841 174.407 98.8841C149.137 98.8841 128.644 92.6898 128.644 85.1311C128.644 77.5199 149.137 71.3782 174.407 71.3782C199.676 71.3256 220.169 77.5199 220.169 85.1311Z" fill="#AA784B"/>
<path d="M135.693 76.6786C139.12 75.0313 143.213 73.796 146.846 73.0753C154.929 71.5312 163.78 70.8105 172.221 70.7591C182.914 70.6563 193.044 71.2738 203.173 73.0239C210.796 74.3107 219.647 77.1933 221.08 82.3408C222.461 87.3851 216.833 91.0912 210.234 93.7165C198.313 98.4007 182.3 100.151 168.231 99.4815C160.301 99.1213 152.422 97.9888 145.464 95.6726C139.888 93.8193 134.106 91.6059 130.577 88.3631C125.614 83.7821 129.553 79.6127 135.693 76.6786Z" fill="#AA784B"/>
<path d="M173.225 95.3147C171.376 95.3147 169.527 95.2622 167.678 95.2096C159.307 94.7896 151.859 93.4773 145.645 91.2728C140.56 89.488 134.962 87.2309 131.88 84.1863C131.161 83.5039 130.956 83.0313 130.904 82.8741C131.109 82.2964 132.342 80.6166 136.246 78.6219C139.225 77.0998 143.025 75.7876 146.723 75.0526C154.119 73.5305 162.748 72.6904 171.685 72.6379C172.352 72.6379 173.02 72.6379 173.688 72.6379C184.165 72.6379 193.513 73.4254 202.244 75C212.568 76.8896 217.036 80.3017 217.549 82.1916C217.909 83.6612 215.341 86.4959 208.767 89.2781C199.419 93.1099 186.476 95.3147 173.225 95.3147Z" fill="#C28F5F"/>
<path d="M173.071 96.4168C171.017 96.4168 168.962 96.3646 166.908 96.2595C157.663 95.6822 148.88 95.1045 141.998 92.0078C137.633 90.0127 132.291 89.7503 129.62 83.0839C130.288 82.5066 131.109 81.8767 132.188 81.1417C135.373 79.0945 139.43 77.3096 143.385 76.3123C151.602 74.1604 161.207 73.0054 171.171 72.9002C171.89 72.9002 172.66 72.9002 173.379 72.9002C185.09 72.9002 195.516 74.0027 205.274 76.2598C213.338 78.1497 217.549 80.9319 219.347 82.6638C218.217 83.9239 216.523 87.2309 212.568 89.3303C202.552 94.737 187.76 96.4168 173.071 96.4168Z" fill="url(#paint0_radial_8_2)"/>
<path d="M172.198 98.464C170.144 98.464 168.089 98.4115 166.086 98.2542C156.944 97.5718 148.983 95.2096 141.844 92.4274C139.07 91.3254 137.735 90.6951 135.835 89.5931C134.345 88.7004 130.904 86.4434 131.931 83.8188C132.496 82.2964 138.557 80.0393 140.406 79.5145C147.956 77.3096 154.992 75.7876 162.44 75.2102C165.11 75 167.73 74.8949 170.401 74.8428C171.12 74.8428 171.89 74.8428 172.609 74.8428C182.265 74.8428 191.972 75.735 201.422 78.0446C203.99 78.6745 206.507 79.2522 209.024 80.0919C210.565 80.6166 216.009 81.9293 215.598 84.6585C215.29 86.6532 213.235 88.018 211.951 88.8055C201.885 95.1571 186.733 98.464 172.198 98.464Z" fill="#131416"/>
<path d="M137.427 76.9947C137.427 76.9947 132.445 78.8847 130.339 81.2469L130.699 81.6139C130.647 81.6139 135.321 77.8348 137.427 76.9947Z" fill="#B18661"/>
<path d="M213.954 78.2023C213.954 78.2023 216.163 79.3043 217.344 80.3542L217.241 80.6166L213.954 78.2023Z" fill="#B18661"/>
<path d="M173.687 68.4387C147.596 68.4387 126.384 75.1577 126.384 83.5039C126.384 94.0546 147.545 99.8289 173.687 99.8289C199.779 99.8289 220.991 96.2595 220.991 83.5039C220.939 75.1577 199.779 68.4387 173.687 68.4387ZM173.687 95.3669C149.753 95.3669 130.39 89.6456 130.39 82.5591C130.39 75.4726 149.753 69.751 173.687 69.751C197.622 69.751 216.985 75.4726 216.985 82.5591C216.985 89.5931 197.622 95.3669 173.687 95.3669Z" fill="#DDDDDC"/>
<path opacity="0.5" d="M166.754 96.627C166.754 96.7317 166.702 96.8368 166.6 96.9419C165.829 98.2542 161.412 97.2043 160.231 97.0992C155.814 96.5745 151.397 96.0493 147.031 95.1045C144.823 94.6323 142.614 94.0546 140.509 93.3722C132.085 90.6951 127.206 87.0732 127.206 83.5039C127.206 80.5644 130.442 77.6246 136.246 75.1577C131.88 77.3096 129.517 79.8295 129.517 82.5066C129.517 86.3383 134.243 89.8029 142.768 92.3227C149.445 94.3174 156.379 95.2096 163.313 95.7344C163.929 95.7869 166.959 95.7344 166.754 96.627Z" fill="white"/>
<path opacity="0.2" d="M210.308 84.1863C210.308 87.9659 198.906 91.0101 184.833 91.0101C170.76 91.0101 176.82 84.8687 180.005 84.1863C197.108 80.4593 170.76 77.3622 184.833 77.3622C198.906 77.3622 210.308 81.8767 210.308 84.1863Z" fill="white"/>
<path opacity="0.5" d="M189.609 95.472C189.609 95.472 185.757 95.7869 184.987 96.5745C184.165 97.362 187.658 98.3068 195.208 96.8368C202.758 95.3669 211.386 92.7424 213.389 90.2229C215.341 87.7031 211.951 89.5931 207.534 91.4826C203.015 93.3201 189.609 95.472 189.609 95.472Z" fill="white"/>
<g opacity="0.5">
<path opacity="0.5" d="M158.639 6.18267C158.639 6.18267 174.509 17.416 167.216 31.064C159.923 44.7645 167.216 57.3103 167.216 57.3103C166.137 55.3156 166.445 51.3262 166.548 49.2264C166.754 44.082 167.729 38.9377 169.938 34.2135C171.427 31.064 173.585 28.1245 173.944 24.6075C174.509 18.6234 169.527 14.0565 165.059 10.697C163.004 9.17473 160.847 7.65245 158.639 6.18267Z" fill="white"/>
<path opacity="0.5" d="M175.742 15.6313C175.742 15.6313 182.675 22.7177 178.002 29.6467C173.276 36.5757 177.437 43.662 177.437 43.662C176.974 42.5074 177.385 40.4076 177.539 39.253C177.95 36.5232 178.772 33.7936 180.21 31.379C181.186 29.8042 182.521 28.3344 182.932 26.4447C183.6 23.2427 181.186 20.5131 178.926 18.4134C177.899 17.521 176.871 16.5761 175.742 15.6313Z" fill="white"/>
<path opacity="0.5" d="M174.612 30.6966C174.612 30.6966 167.73 46.9168 173.122 56.7329C178.207 66.0765 172.352 71.588 172.352 71.588C172.352 71.588 181.546 67.4413 176.564 57.0479C170.349 44.2397 174.612 30.6966 174.612 30.6966Z" fill="white"/>
</g>
<path opacity="0.7" d="M168.346 58.2551C168.346 58.2551 173.482 62.4542 169.99 66.6013C166.497 70.6957 169.579 74.9475 169.579 74.9475C169.219 74.2651 169.527 73.0054 169.681 72.3229C169.99 70.6957 170.606 69.0685 171.685 67.6512C172.403 66.7064 173.379 65.8138 173.688 64.7117C174.15 62.8217 172.403 61.1945 170.76 59.9348C169.938 59.3575 169.168 58.7798 168.346 58.2551Z" fill="white"/>
<path d="M67.9497 101.896V103.198H39.0745C35.6221 103.197 32.8231 106.058 32.8237 109.586V136.409C32.8237 139.937 30.0241 142.798 26.5711 142.797H25.9131C22.4601 142.798 19.6605 139.937 19.6605 136.409V94.5365C19.6605 91.0074 22.4601 88.1471 25.9131 88.1479H39.9392C41.6946 88.1479 43.3692 88.9022 44.5541 90.226L48.8114 94.9867C49.1074 95.3178 49.5263 95.5068 49.9657 95.5068H61.6973C65.15 95.5064 67.9497 98.3671 67.9497 101.896Z" fill="#E9B78A"/>
<path d="M75.6173 109.586V136.409C75.6173 139.937 72.8176 142.798 69.3649 142.797H26.5711C30.0241 142.798 32.8237 139.937 32.8237 136.409V109.586C32.8231 106.058 35.6221 103.197 39.0745 103.198H69.3649C72.8176 103.197 75.6173 106.057 75.6173 109.586Z" fill="#AA784B"/>
<path d="M43.7072 129.369C43.2754 129.37 42.8886 129.095 42.7397 128.68C42.5903 128.266 42.7098 127.8 43.0383 127.514L48.786 122.511L43.0383 117.509C42.6138 117.129 42.5665 116.471 42.9321 116.033C43.2977 115.594 43.9408 115.536 44.3753 115.904L51.0443 121.709C51.2742 121.909 51.4065 122.202 51.4065 122.511C51.4065 122.82 51.2742 123.113 51.0443 123.313L44.3753 129.118C44.1889 129.28 43.9518 129.37 43.7072 129.369Z" fill="#424345"/>
<path d="M64.7337 130.341H51.4806C50.9112 130.341 50.45 129.87 50.45 129.288C50.45 128.706 50.9112 128.235 51.4806 128.235H64.7337C65.3031 128.235 65.7643 128.706 65.7643 129.288C65.7643 129.87 65.3031 130.341 64.7337 130.341Z" fill="#424345"/>
</g>
<defs>
<radialGradient id="paint0_radial_8_2" cx="0" cy="0" r="1" gradientUnits="userSpaceOnUse" gradientTransform="translate(175.08 84.4982) scale(49.0102 13.0163)">
<stop offset="0.2673" stop-color="#131416"/>
<stop offset="0.4512" stop-color="#151617"/>
<stop offset="0.5522" stop-color="#1D1B1A"/>
<stop offset="0.633" stop-color="#2B2520"/>
<stop offset="0.7032" stop-color="#3F3328"/>
<stop offset="0.7665" stop-color="#584433"/>
<stop offset="0.8248" stop-color="#775A40"/>
<stop offset="0.8782" stop-color="#9B744F"/>
<stop offset="0.9255" stop-color="#C28F5F"/>
</radialGradient>
<clipPath id="clip0_8_2">
<rect width="245" height="165" fill="white"/>
</clipPath>
</defs>
</svg>
