<svg width="245" height="165" viewBox="0 0 245 165" fill="none" xmlns="http://www.w3.org/2000/svg">
<g clip-path="url(#clip0_8_349)">
<path d="M245 0H0V165H245V0Z" fill="white"/>
<path d="M245 0H0V165H245V0Z" fill="white"/>
<path d="M245 0H0V165H245V0Z" fill="#FFE307"/>
<path d="M36.1009 16.5V40.5738H29.5728L20.622 29.6374V40.5738H12.8826V16.5H19.4106L28.3614 27.4364V16.5H36.1009ZM49.4163 40.9177C47.375 40.9177 45.5356 40.505 43.8978 39.6796C42.2826 38.8314 41.0152 37.6734 40.0953 36.2061C39.1758 34.7158 38.7157 33.0306 38.7157 31.1506C38.7157 29.2706 39.1758 27.5968 40.0953 26.1295C41.0152 24.6392 42.2826 23.4814 43.8978 22.656C45.5356 21.8306 47.375 21.4179 49.4163 21.4179C51.4803 21.4179 53.3197 21.8306 54.9349 22.656C56.5727 23.4814 57.8401 24.6392 58.7373 26.1295C59.6572 27.5968 60.1169 29.2706 60.1169 31.1506C60.1169 33.0306 59.6572 34.7158 58.7373 36.2061C57.8401 37.6734 56.5727 38.8314 54.9349 39.6796C53.3197 40.505 51.4803 40.9177 49.4163 40.9177ZM49.4163 34.8648C50.2912 34.8648 51.0092 34.5438 51.5699 33.9019C52.131 33.237 52.4111 32.3199 52.4111 31.1506C52.4111 29.9813 52.131 29.0757 51.5699 28.4337C51.0092 27.7918 50.2912 27.4708 49.4163 27.4708C48.5414 27.4708 47.8238 27.7918 47.2627 28.4337C46.702 29.0757 46.4215 29.9813 46.4215 31.1506C46.4215 32.3199 46.702 33.237 47.2627 33.9019C47.8238 34.5438 48.5414 34.8648 49.4163 34.8648ZM82.8554 15.0556V40.5738H75.6207V39.0262C74.5212 40.287 72.8388 40.9177 70.5733 40.9177C68.9581 40.9177 67.4662 40.5278 66.0979 39.7484C64.7519 38.9458 63.6751 37.7996 62.8675 36.3093C62.0822 34.819 61.6897 33.0994 61.6897 31.1506C61.6897 29.2018 62.0822 27.4937 62.8675 26.0263C63.6751 24.536 64.7519 23.4011 66.0979 22.6216C67.4662 21.8191 68.9581 21.4179 70.5733 21.4179C72.6146 21.4179 74.1738 21.9567 75.2506 23.0343V15.0556H82.8554ZM72.3903 34.8648C73.2652 34.8648 73.9828 34.5438 74.5439 33.9019C75.1046 33.237 75.3852 32.3199 75.3852 31.1506C75.3852 29.9813 75.1046 29.0757 74.5439 28.4337C73.9828 27.7918 73.2652 27.4708 72.3903 27.4708C71.5155 27.4708 70.7975 27.7918 70.2368 28.4337C69.6757 29.0757 69.3955 29.9813 69.3955 31.1506C69.3955 32.3199 69.6757 33.237 70.2368 33.9019C70.7975 34.5438 71.5155 34.8648 72.3903 34.8648ZM105.807 31.1506C105.807 31.2653 105.773 31.8728 105.706 32.9733H92.9193C93.1885 33.6841 93.6369 34.2343 94.2653 34.6241C94.8933 34.9909 95.6786 35.1744 96.6208 35.1744C97.4284 35.1744 98.1014 35.0712 98.6398 34.8648C99.2005 34.6585 99.8062 34.3031 100.457 33.7987L104.428 37.8913C102.633 39.9087 99.9521 40.9177 96.3852 40.9177C94.1644 40.9177 92.2127 40.505 90.5302 39.6796C88.8477 38.8314 87.5463 37.662 86.6268 36.1717C85.7069 34.6814 85.2472 33.0077 85.2472 31.1506C85.2472 29.2706 85.6956 27.5968 86.5932 26.1295C87.5127 24.6392 88.7577 23.4814 90.3283 22.656C91.9208 21.8306 93.7042 21.4179 95.6786 21.4179C97.5403 21.4179 99.2341 21.7962 100.76 22.5528C102.308 23.3094 103.53 24.4214 104.428 25.8888C105.347 27.3561 105.807 29.1101 105.807 31.1506ZM95.7459 26.7142C94.9606 26.7142 94.3099 26.932 93.7942 27.3676C93.2781 27.8032 92.9416 28.4222 92.7847 29.2247H98.7071C98.5498 28.4452 98.2133 27.8376 97.6976 27.402C97.1815 26.9434 96.5308 26.7142 95.7459 26.7142ZM124.487 41.124C122.647 41.124 120.976 40.8261 119.473 40.2299C117.992 39.6108 116.77 38.7166 115.805 37.5474L120.079 32.3887C120.707 33.1912 121.324 33.7872 121.93 34.177C122.535 34.5668 123.163 34.7617 123.814 34.7617C124.644 34.7617 125.272 34.5095 125.698 34.0051C126.147 33.5007 126.371 32.7555 126.371 31.7696V22.6216H118.363V16.5H134.212V31.2882C134.212 34.5668 133.381 37.0315 131.722 38.6823C130.084 40.3102 127.672 41.124 124.487 41.124ZM146.636 41.124C144.684 41.124 142.777 40.9061 140.915 40.4706C139.076 40.0119 137.561 39.4045 136.372 38.6479L138.93 32.7326C140.052 33.3975 141.308 33.9363 142.699 34.349C144.09 34.7388 145.424 34.9336 146.703 34.9336C147.802 34.9336 148.587 34.8305 149.058 34.6241C149.529 34.3948 149.765 34.0624 149.765 33.6268C149.765 33.1224 149.451 32.7441 148.823 32.4919C148.217 32.2396 147.208 31.9645 145.794 31.6665C143.977 31.2767 142.463 30.864 141.252 30.4284C140.04 29.9698 138.986 29.2362 138.089 28.2274C137.191 27.1956 136.743 25.8085 136.743 24.066C136.743 22.5528 137.158 21.1772 137.988 19.9391C138.818 18.701 140.052 17.7266 141.689 17.0159C143.349 16.3051 145.357 15.9497 147.712 15.9497C149.328 15.9497 150.909 16.1332 152.457 16.5C154.028 16.8439 155.407 17.3598 156.596 18.0476L154.207 23.9285C151.896 22.7363 149.709 22.1401 147.645 22.1401C145.604 22.1401 144.583 22.6445 144.583 23.6533C144.583 24.1348 144.886 24.5016 145.491 24.7539C146.097 24.9831 147.096 25.2353 148.486 25.5105C150.281 25.8544 151.795 26.2556 153.029 26.7142C154.263 27.1498 155.329 27.872 156.226 28.8808C157.146 29.8896 157.605 31.2653 157.605 33.0077C157.605 34.5209 157.191 35.8966 156.36 37.1347C155.53 38.3498 154.285 39.3241 152.625 40.0579C150.988 40.7685 148.991 41.124 146.636 41.124Z" fill="#211F1D"/>
<path d="M272.707 114.972H61.495C60.9525 114.972 60.5457 114.556 60.5457 114.002V111.322C60.5457 110.768 60.9525 110.352 61.495 110.352H272.707C273.25 110.352 273.657 110.768 273.657 111.322V114.002C273.657 114.556 273.25 114.972 272.707 114.972Z" fill="#211F1D"/>
<path d="M101.821 114.972H96.9833V172.749L101.821 172.348V114.972Z" fill="#211F1D"/>
<path d="M234.144 114.972H229.307L229.157 185.491L232.684 186.688L234.144 114.972Z" fill="#211F1D"/>
<path d="M196.698 102.774H129.428C128.614 102.774 127.937 102.081 127.937 101.249V61.3746C127.937 60.543 128.614 59.8498 129.428 59.8498H196.743C197.557 59.8498 198.235 60.543 198.235 61.3746V101.249C198.235 102.081 197.557 102.774 196.698 102.774Z" fill="#FAFAFA"/>
<path d="M171.021 108.365C170.75 107.672 170.66 106.932 170.66 106.193V102.774H163.11H162.748H155.967V106.193C155.967 106.932 155.877 107.672 155.606 108.365C155.244 109.335 154.566 110.398 153.345 110.398H162.748H163.11H173.282C172.061 110.351 171.383 109.289 171.021 108.365Z" fill="#9B9B9B"/>
<path d="M196.698 95.9357H129.428C128.614 95.9357 127.937 95.2429 127.937 94.4113V54.5369C127.937 53.7054 128.614 53.0121 129.428 53.0121H196.743C197.557 53.0121 198.235 53.7054 198.235 54.5369V94.3649C198.235 95.2429 197.557 95.9357 196.698 95.9357Z" fill="black"/>
<path d="M195.614 55.3218H130.65V93.0704H195.614V55.3218Z" fill="#FAFAFA"/>
<path d="M133.783 86.0944C133.828 86.1404 133.919 86.0944 133.964 86.0481L135.184 84.8007L136.088 86.6026C136.134 86.649 136.179 86.6949 136.224 86.6949C136.27 86.6949 136.269 86.6949 136.314 86.6949L137.038 86.2791C137.083 86.2791 137.128 86.2332 137.128 86.1868C137.128 86.1404 137.128 86.0944 137.128 86.0481L136.27 84.3849H137.897C137.987 84.3849 138.033 84.3386 138.078 84.2462C138.123 84.1539 138.078 84.1075 138.033 84.0615L133.919 80.2263C133.873 80.1803 133.783 80.1803 133.738 80.1803C133.692 80.2263 133.647 80.2727 133.647 80.365V85.9557C133.647 86.0021 133.692 86.0481 133.783 86.0944Z" fill="black"/>
<path d="M175.855 108.319L138.694 110.768C135.484 110.999 132.727 108.504 132.546 105.224C132.32 101.943 134.761 99.1244 137.971 98.9397L175.132 96.491C177.076 96.3523 178.749 97.8771 178.884 99.8636L179.155 104.484C179.291 106.471 177.844 108.18 175.855 108.319Z" fill="#FBC39D"/>
<path d="M152.167 85.771L133.767 98.9853C131.326 100.741 130.693 104.16 132.32 106.702C133.541 108.642 135.846 109.613 138.062 109.15C146.154 107.487 164.78 103.606 164.599 102.959C164.463 102.451 162.384 94.9194 160.711 88.8666C159.626 85.1242 155.286 83.507 152.167 85.771Z" fill="#1487E3"/>
<path d="M164.645 108.319L201.806 110.768C205.016 110.999 207.773 108.504 207.954 105.224C208.18 101.943 205.739 99.1244 202.529 98.9397L165.368 96.491C163.424 96.3523 161.751 97.8771 161.616 99.8636L161.345 104.484C161.209 106.471 162.701 108.18 164.645 108.319Z" fill="#FBC39D"/>
<path d="M188.379 85.771L206.779 98.9853C209.22 100.741 209.853 104.16 208.225 106.702C207.005 108.642 204.699 109.613 202.484 109.15C194.392 107.487 175.766 103.606 175.947 102.959C176.082 102.451 178.162 94.9194 179.834 88.8666C180.875 85.1242 185.214 83.507 188.379 85.771Z" fill="#1487E3"/>
<path d="M155.874 61.5145C153.885 61.5145 152.258 63.224 152.258 65.3497C152.258 67.4749 153.885 69.1845 155.874 69.1845C157.864 69.1845 159.491 67.4749 159.491 65.3497C159.446 63.224 157.864 61.5145 155.874 61.5145Z" fill="#F9AC7F"/>
<path d="M183.09 61.5145C181.1 61.5145 179.473 63.224 179.473 65.3497C179.473 67.4749 181.1 69.1845 183.09 69.1845C185.079 69.1845 186.706 67.4749 186.706 65.3497C186.661 63.224 185.079 61.5145 183.09 61.5145Z" fill="#F9AC7F"/>
<path d="M168.352 85.8178C168.714 85.8638 169.076 85.9101 169.483 85.9101C170.613 85.9101 171.743 85.7714 172.828 85.4943C172.828 85.4943 172.828 85.4943 172.828 85.448C178.705 83.8772 183.09 78.1942 183.09 71.4481V54.5373C183.09 46.5443 176.987 47.838 169.528 47.838C162.023 47.838 155.966 46.5903 155.966 54.5373V71.4481C155.875 79.0257 161.345 85.2173 168.352 85.8178Z" fill="#FBC39D"/>
<path d="M180.287 65.9034V70.4778H175.45C175.45 70.4778 174.274 67.1971 169.437 67.1971C164.6 67.1971 163.424 70.4778 163.424 70.4778H158.587V65.9034C158.587 64.1015 156.959 63.5007 155.829 63.3159V71.4481C155.829 79.0253 161.299 85.2169 168.307 85.8174L168.261 85.8638C168.623 85.9097 169.03 85.9097 169.391 85.9097C169.753 85.9097 170.16 85.9097 170.522 85.8638L170.477 85.8174C177.439 85.2169 182.954 79.0253 182.954 71.4481V63.3159C181.914 63.5007 180.287 64.1015 180.287 65.9034Z" fill="#211F1D"/>
<path d="M179.428 42.2933C175.721 41.7388 169.934 41.6925 165.685 45.2502C165.594 45.3425 165.504 45.4349 165.413 45.5276H162.068C158.632 45.5276 155.829 48.0223 155.829 51.0719V54.2139V61.4217V70.2004C156.462 70.2004 156.959 69.6462 156.959 68.9994V56.6626C156.959 56.6626 157.185 52.7355 160.666 52.7355H168.578H168.668H177.665C181.372 52.7355 181.824 56.1545 181.869 56.6166V68.953C181.869 69.6462 182.366 70.1544 182.999 70.1544V61.3754V54.1675V51.349L183.045 46.5439C183.09 44.4186 181.553 42.5704 179.428 42.2933Z" fill="#211F1D"/>
<path d="M182.863 50.6558H156.598V73.8964H182.863V50.6558Z" fill="#211F1D"/>
<path d="M176.85 158.451H162.022C151.669 158.451 143.261 149.163 143.261 137.751L147.962 96.3059C149.59 85.2633 159.581 78.1478 169.752 78.1478C180.015 78.1478 190.096 85.4016 191.588 96.6293L195.702 137.751C195.612 149.163 187.203 158.451 176.85 158.451Z" fill="#F16A51"/>
<path d="M173.029 176.07L167.315 174.253L164.779 173.526V114.068C164.779 113.235 165.322 112.569 166 112.569H172.962C173.64 112.569 174.183 113.235 174.183 114.068L174.091 176.434L173.029 176.07Z" fill="#211F1D"/>
<path d="M175.313 117.698H163.243C161.932 117.698 160.892 116.636 160.892 115.296V109.844C160.892 108.504 161.932 107.441 163.243 107.441H175.313C176.625 107.441 177.664 108.504 177.664 109.844V115.296C177.71 116.636 176.625 117.698 175.313 117.698Z" fill="#211F1D"/>
<path d="M95.2906 85.0685C95.2906 92.2744 91.0991 94.7904 85.9288 94.7904C80.7585 94.7904 76.567 92.2744 76.567 85.0685C76.567 77.8626 85.9288 68.6953 85.9288 68.6953C85.9288 68.6953 95.2906 77.8626 95.2906 85.0685Z" fill="#F16A51"/>
<path d="M85.6846 87.6575L89.6749 80.197L85.6997 86.7116L85.7428 84.0001L88.4926 78.6018L85.7541 83.2821L85.8316 78.4051L88.7765 74.1078L85.8437 77.6385L85.8921 68.6956L85.601 80.0269L82.6187 75.3621L85.5647 80.9833L85.2861 86.4299L85.2777 86.2853L81.8258 81.3566L85.2671 86.7962L85.2324 87.4774L85.2259 87.4875L85.229 87.5435L84.5212 94.812H85.4668L85.5802 94.2251L89.0128 88.7982L85.5885 93.6883L85.6846 87.6575Z" fill="#3F3D56"/>
<path d="M91.9091 110.423H80.748L77.8635 93.761H94.1662L91.9091 110.423Z" fill="#2F2E41"/>
</g>
<defs>
<clipPath id="clip0_8_349">
<rect width="245" height="165" fill="white"/>
</clipPath>
</defs>
</svg>
