<svg width="245" height="165" viewBox="0 0 245 165" fill="none" xmlns="http://www.w3.org/2000/svg">
<g clip-path="url(#clip0_8_409)">
<path d="M245 0H0V165H245V0Z" fill="white"/>
<path d="M245 0H0V165H245V0Z" fill="#EBE9DC"/>
<path d="M158.04 17.0023H-9.0741V187.799H158.04V17.0023Z" fill="#EBE9DC"/>
<path d="M18.5833 155.569C18.5833 155.569 2.51526 149.515 5.88263 132.221C8.55646 118.472 21.1402 114.971 31.2339 117.012C43.3162 119.455 47.5609 106.423 46.8505 99.6337C46.1405 92.8444 52.1732 83.3567 67.8986 82.648C82.3876 81.9903 89.8908 100.462 94.9461 106.764C102.7 116.44 114.423 109.104 123.531 103.169C133.525 96.6618 143.752 108.652 143.752 128.524C143.752 148.396 128.879 156.167 128.879 156.167L18.5833 155.569Z" fill="white"/>
<path d="M112.209 103.024C112.209 103.024 118.868 99.0444 115.835 94.0145C112.802 88.9845 107.179 91.8366 104.823 94.339C102.466 96.8411 100.586 100.829 104.096 103.912C107.38 106.799 112.209 103.024 112.209 103.024Z" fill="white"/>
<path d="M32.8381 101.674C32.8381 101.674 26.6883 99.5054 25.2094 104.254C23.7221 109.002 28.6018 111.111 31.4594 111.282C34.3171 111.444 37.8517 110.488 37.8517 106.5C37.8517 102.759 32.8381 101.674 32.8381 101.674Z" fill="white"/>
<path d="M88.9134 98.993L79.9308 99.0015L79.7804 98.8477C79.7221 98.7882 73.5053 92.4429 67.9572 84.5097C64.6902 79.8384 62.2837 75.5341 60.8046 71.7085C58.9414 66.8748 58.5569 62.7757 59.6767 59.5476C60.8382 56.2086 63.0689 53.732 66.3193 52.2119C68.6257 51.1276 71.3831 50.5383 74.5079 50.4699L101.029 50.4614C101.464 50.4614 111.549 50.5638 115.367 59.5221C116.713 62.6733 116.47 66.721 114.649 71.5547C113.22 75.3633 110.814 79.6761 107.488 84.3815C101.856 92.3575 95.4392 98.7967 95.3723 98.8651L95.2218 99.01L88.9134 98.993Z" fill="#848418"/>
<path d="M101.021 50.9738C101.272 50.9738 111.189 51.0248 114.891 59.7269C120.54 72.9806 95.013 98.4976 95.013 98.4976L88.9134 98.4891L80.1399 98.4976C80.1399 98.4976 55.4236 73.3481 60.1444 59.7269C62.6511 52.4939 69.854 51.0932 74.5079 50.9823L101.021 50.9738ZM101.021 49.949L74.5079 49.9575H74.4996H74.4913C71.2995 50.0344 68.4752 50.6322 66.1023 51.7509C62.7264 53.339 60.4038 55.9099 59.2003 59.3853C58.0388 62.7328 58.4234 66.9432 60.3452 71.9133C61.8409 75.7732 64.264 80.1115 67.556 84.8254C73.1294 92.7934 79.3712 99.1723 79.4295 99.2322L79.7221 99.5309H80.1399L88.9134 99.5224L95.013 99.5309H95.4225L95.7148 99.2407C95.7817 99.1723 102.224 92.7076 107.881 84.689C111.223 79.9493 113.655 75.5939 115.1 71.751C116.963 66.7809 117.206 62.6049 115.81 59.3258C114.9 57.1908 113.563 55.3716 111.833 53.9113C110.454 52.7501 108.825 51.8108 107.003 51.1361C103.92 49.983 101.313 49.949 101.021 49.949Z" fill="#747B2B"/>
<g opacity="0.4">
<g opacity="0.4">
<path opacity="0.4" d="M62.9022 59.7184C65.409 52.4855 72.6115 51.0847 77.2658 50.9738L101.088 50.9653C101.038 50.9653 101.013 50.9653 101.013 50.9653L74.508 50.9738C69.8541 51.0847 62.6516 52.4766 60.1449 59.7184C55.4237 73.3396 80.14 98.4892 80.14 98.4892H82.8974C82.6047 98.1905 58.2144 73.2627 62.9022 59.7184Z" fill="#EFF2BD"/>
</g>
<g opacity="0.4">
<path opacity="0.4" d="M91.6708 98.4807H90.0413L95.0131 98.4892C95.0131 98.4892 95.0131 98.4892 95.0214 98.4807H91.6708Z" fill="#EFF2BD"/>
</g>
</g>
<path d="M105.641 66.67C105.591 67.541 105.399 69.0438 104.789 71.273C103.745 75.0476 101.89 79.4968 99.2828 84.5009C96.3583 90.0946 93.1578 95.0732 91.0942 98.1221L88.8382 98.1136H88.8128L84.117 98.1221C82.1369 95.1501 79.1202 90.3763 76.288 84.9279C73.6557 79.8639 71.7589 75.3293 70.6393 71.4523C69.2272 66.5333 69.6367 64.629 69.6953 64.4323C69.9542 63.4334 70.3384 62.6389 71.4163 61.9558C72.4526 61.2985 73.9313 60.9055 75.5858 60.8456L99.9679 60.8371C100.135 60.8456 101.422 60.9484 102.792 61.6996C104.597 62.6988 105.224 64.0652 105.566 65.1499C105.633 65.3462 105.691 65.8671 105.641 66.67Z" fill="#9FA52D"/>
<path d="M94.6536 154.716C92.9575 154.707 91.2448 154.647 89.5819 154.596C87.9943 154.545 86.3482 154.485 84.7273 154.476C84.5768 154.476 84.4263 154.476 84.2676 154.476C82.9473 154.476 81.7276 154.519 80.5324 154.613L79.9895 154.656V64.9621C79.9895 64.6885 80.0061 64.4153 80.0311 64.1251C79.9978 62.5025 80.0228 61.2386 80.0228 61.1532C80.0228 55.2692 83.6157 50.4869 88.0359 50.4869H93.818C96.4336 50.4869 100.553 51.9557 103.828 54.0566C106.201 55.5768 110.187 58.745 110.187 62.8866C110.187 66.0978 108.199 68.7196 105.758 68.7196H95.1636V154.716H94.6536Z" fill="#BCC745"/>
<path d="M93.8184 50.9993C98.656 50.9993 109.686 56.3539 109.686 62.8866C109.686 65.8072 107.914 68.2072 105.758 68.2072H94.6623V154.203C91.3533 154.186 88.053 153.989 84.7356 153.964C84.5851 153.964 84.4263 153.964 84.2759 153.964C83.0142 153.964 81.7608 154.006 80.4992 154.1V64.9621C80.4992 64.6885 80.5158 64.4153 80.5411 64.1506C80.5075 62.4511 80.5328 61.1617 80.5328 61.1617C80.5328 55.5768 83.9084 51.0078 88.0443 51.0078H93.8184V50.9993ZM93.8184 49.9745H88.0359C83.3484 49.9745 79.5301 54.9875 79.5214 61.1447C79.5214 61.2726 79.4965 62.494 79.5301 64.1081C79.5048 64.3983 79.4882 64.6885 79.4882 64.9621V154.1V155.202L80.5661 155.117C81.7525 155.023 82.9643 154.98 84.2675 154.98C84.418 154.98 84.5685 154.98 84.719 154.98C86.3315 154.989 87.9694 155.049 89.557 155.1C91.2194 155.151 92.9408 155.211 94.6453 155.219L95.6566 155.228V154.195V69.2231H105.75C107.121 69.2231 108.391 68.5229 109.326 67.2504C110.204 66.0634 110.68 64.5177 110.68 62.8781C110.68 59.6245 108.34 56.3369 104.087 53.6126C100.687 51.4433 96.5588 49.9745 93.8184 49.9745Z" fill="#747B2B"/>
<path d="M80.5994 110.966C80.2651 110.966 79.9895 110.684 79.9895 110.342V103.169C79.9895 102.827 80.2651 102.546 80.5994 102.546H82.2871C83.5322 102.546 84.5436 103.579 84.5436 104.852V108.652C84.5436 109.924 83.5322 110.957 82.2871 110.957H80.5994V110.966Z" fill="#848418"/>
<path d="M82.2875 103.058C83.2565 103.058 84.0422 103.861 84.0422 104.852V108.652C84.0422 109.642 83.2565 110.445 82.2875 110.445H80.5994C80.5411 110.445 80.4908 110.394 80.4908 110.334V103.169C80.4908 103.109 80.5411 103.058 80.5994 103.058H82.2875ZM82.2875 102.033H80.5994C79.9895 102.033 79.4882 102.546 79.4882 103.169V110.334C79.4882 110.957 79.9895 111.47 80.5994 111.47H82.2875C83.8082 111.47 85.0449 110.206 85.0449 108.652V104.852C85.0449 103.306 83.8082 102.033 82.2875 102.033Z" fill="#747B2B"/>
<path d="M80.5994 81.2557C80.2651 81.2557 79.9895 80.974 79.9895 80.6324V73.4675C79.9895 73.1259 80.2651 72.8442 80.5994 72.8442H82.2871C83.5322 72.8442 84.5436 73.8775 84.5436 75.15V78.95C84.5436 80.2225 83.5322 81.2557 82.2871 81.2557H80.5994Z" fill="#848418"/>
<path d="M82.2875 73.3481C83.2565 73.3481 84.0422 74.1507 84.0422 75.1415V78.9415C84.0422 79.9323 83.2565 80.7349 82.2875 80.7349H80.5994C80.5411 80.7349 80.4908 80.6839 80.4908 80.624V73.459C80.4908 73.3991 80.5411 73.3481 80.5994 73.3481H82.2875ZM82.2875 72.3233H80.5994C79.9895 72.3233 79.4882 72.8357 79.4882 73.459V80.624C79.4882 81.2472 79.9895 81.7596 80.5994 81.7596H82.2875C83.8082 81.7596 85.0449 80.4961 85.0449 78.9415V75.1415C85.0449 73.5958 83.8082 72.3233 82.2875 72.3233Z" fill="#747B2B"/>
<g opacity="0.4">
<path opacity="0.4" d="M82.3291 66.1403C82.3291 65.8671 82.3457 65.5939 82.3711 65.3292C82.3374 63.6297 82.3628 62.3402 82.3628 62.3402C82.3628 56.755 85.7383 52.1864 89.8742 52.1864H95.6566C97.8541 52.1864 101.322 53.288 104.455 55.0984C100.929 52.5964 96.4503 51.0078 93.8184 51.0078H88.0359C83.9084 51.0078 80.5245 55.5768 80.5245 61.1617C80.5245 61.1617 80.4992 62.4511 80.5328 64.1506C80.5075 64.4153 80.4908 64.6885 80.4908 64.9621V154.1C81.1007 154.049 81.7192 154.023 82.3291 153.998V66.1403Z" fill="#EFF2BD"/>
</g>
<path d="M54.1952 137.508C50.5021 137.508 47.3772 134.562 47.0762 130.804C47.0596 130.607 47.0513 130.411 47.0513 130.206V126.193C47.0513 125.526 47.1431 124.86 47.3186 124.219C48.1874 121.086 51.0117 118.891 54.1952 118.891H94.0519C97.2354 118.891 100.06 121.077 100.929 124.219C101.104 124.86 101.196 125.526 101.196 126.193V130.206C101.196 130.411 101.188 130.607 101.171 130.804C100.87 134.562 97.7455 137.508 94.0519 137.508H54.1952Z" fill="#BCC745"/>
<path d="M94.0519 119.403C97.0853 119.403 99.6586 121.504 100.444 124.356C100.603 124.937 100.695 125.56 100.695 126.193V130.206C100.695 130.394 100.687 130.582 100.67 130.761C100.394 134.237 97.5198 136.995 94.0519 136.995H54.1952C50.7278 136.995 47.8532 134.237 47.5776 130.761C47.5609 130.582 47.5526 130.394 47.5526 130.206V126.193C47.5526 125.56 47.6362 124.937 47.8033 124.356C48.5886 121.504 51.1622 119.403 54.1952 119.403H94.0519ZM94.0519 118.378H54.1952C50.7947 118.378 47.7613 120.718 46.8339 124.075C46.6418 124.766 46.5499 125.475 46.5499 126.193V130.206C46.5499 130.42 46.5582 130.633 46.5749 130.847C46.7337 132.785 47.5942 134.596 49.0064 135.936C50.4268 137.285 52.2734 138.02 54.1952 138.02H94.0519C95.9738 138.02 97.8203 137.277 99.2408 135.936C100.653 134.596 101.514 132.794 101.673 130.847C101.689 130.642 101.698 130.42 101.698 130.206V126.193C101.698 125.475 101.597 124.766 101.413 124.075C100.486 120.718 97.4612 118.378 94.0519 118.378Z" fill="#747B2B"/>
<path d="M73.7476 123.332C72.6364 123.332 71.7339 122.409 71.7339 121.273V119.548C71.7339 119.343 71.8927 119.181 72.0931 119.181H79.1035C79.3043 119.181 79.4631 119.343 79.4631 119.548V121.273C79.4631 122.409 78.5606 123.332 77.449 123.332H73.7476Z" fill="#848418"/>
<path d="M79.1119 119.446C79.1705 119.446 79.2208 119.497 79.2208 119.557V121.282C79.2208 122.273 78.4352 123.075 77.4661 123.075H73.7476C72.7786 123.075 71.9929 122.273 71.9929 121.282V119.557C71.9929 119.497 72.0432 119.446 72.1018 119.446H79.1119ZM79.1119 118.925H72.1018C71.7589 118.925 71.4833 119.207 71.4833 119.557V121.282C71.4833 122.554 72.5026 123.596 73.7476 123.596H77.4661C78.7112 123.596 79.7305 122.554 79.7305 121.282V119.557C79.7305 119.207 79.4549 118.925 79.1119 118.925Z" fill="#747B2B"/>
<g opacity="0.4">
<path opacity="0.4" d="M100.453 124.425C99.667 121.572 97.0938 119.472 94.0604 119.472H54.2036C51.1706 119.472 48.597 121.572 47.8117 124.425C47.6529 125.014 47.561 125.629 47.561 126.261V128.054C47.561 127.422 47.6446 126.799 47.8117 126.218C48.597 123.366 51.1706 121.265 54.2036 121.265H94.0604C97.0938 121.265 99.667 123.366 100.453 126.218C100.611 126.799 100.703 127.422 100.703 128.054V126.261C100.695 125.62 100.611 125.005 100.453 124.425Z" fill="#EFF2BD"/>
</g>
<path d="M100.695 126.193V130.206C100.695 130.394 100.686 130.582 100.67 130.761H47.5776C47.5609 130.582 47.5522 130.394 47.5522 130.206V126.193C47.5522 125.56 47.6358 124.937 47.8029 124.356H100.453C100.611 124.946 100.695 125.56 100.695 126.193Z" fill="#9FA52D"/>
<path d="M56.8441 128.703C56.5935 128.703 56.3848 128.489 56.3848 128.233V126.047C56.3848 124.604 57.5292 123.434 58.9414 123.434H63.6625C65.0747 123.434 66.2192 124.604 66.2192 126.047V128.233C66.2192 128.489 66.0105 128.703 65.7598 128.703H56.8441Z" fill="#848418"/>
<path d="M63.6538 123.759C64.8906 123.759 65.8849 124.783 65.8849 126.039V128.225C65.8849 128.302 65.8263 128.37 65.7428 128.37H56.8441C56.7689 128.37 56.702 128.31 56.702 128.225V126.039C56.702 124.775 57.7046 123.759 58.933 123.759H63.6538ZM63.6538 123.101H58.933C57.3455 123.101 56.0588 124.425 56.0588 126.039V128.225C56.0588 128.669 56.4097 129.028 56.8441 129.028H65.7515C66.1859 129.028 66.5367 128.669 66.5367 128.225V126.039C66.5367 124.416 65.2414 123.101 63.6538 123.101Z" fill="#747B2B"/>
<path d="M81.7944 128.626C81.5936 128.626 81.4348 128.464 81.4348 128.259V126.534C81.4348 125.398 82.3373 124.476 83.4485 124.476H87.167C88.2782 124.476 89.1807 125.398 89.1807 126.534V128.259C89.1807 128.464 89.0219 128.626 88.8215 128.626H81.7944Z" fill="#848418"/>
<path d="M87.1587 124.741C88.1278 124.741 88.9134 125.543 88.9134 126.534V128.259C88.9134 128.319 88.8632 128.37 88.8046 128.37H81.7941C81.7359 128.37 81.6856 128.319 81.6856 128.259V126.534C81.6856 125.543 82.4708 124.741 83.4403 124.741H87.1587ZM87.1587 124.219H83.4403C82.1952 124.219 81.1759 125.262 81.1759 126.534V128.259C81.1759 128.609 81.4515 128.891 81.7941 128.891H88.8046C89.1471 128.891 89.4231 128.609 89.4231 128.259V126.534C89.4231 125.262 88.4034 124.219 87.1587 124.219Z" fill="#747B2B"/>
<path d="M37.3251 155.834C27.4821 155.834 18.7587 150.557 15.6003 142.691C15.2911 141.914 15.3663 141.077 15.8175 140.394C16.2771 139.702 17.0207 139.284 17.8229 139.284C18.1905 139.284 18.5415 139.369 18.8841 139.54C21.3072 140.736 24.708 141.709 28.9778 142.427C29.9052 142.58 30.8912 142.725 31.8856 142.862C37.2499 143.562 43.7759 143.921 51.2707 143.921H51.7222V155.834H37.3251Z" fill="#BCC745"/>
<path d="M17.823 139.753C18.1071 139.753 18.3996 139.822 18.6837 139.959C20.7642 140.983 23.9728 142.059 28.9027 142.888C29.8135 143.041 30.7911 143.187 31.8272 143.323C36.7487 143.964 43.0905 144.382 51.2708 144.382V155.364H37.3169C27.4154 155.364 19.0095 149.984 16.0098 142.512C15.4583 141.12 16.5279 139.753 17.823 139.753ZM17.823 138.823V139.753V138.823C16.8705 138.823 15.9764 139.318 15.4416 140.138C14.9069 140.949 14.815 141.948 15.1826 142.871C15.9597 144.818 17.0961 146.645 18.55 148.302C19.9788 149.933 21.6834 151.359 23.6219 152.546C27.6243 155.006 32.3703 156.304 37.3336 156.304H51.2874H52.1983V155.373V144.391V143.46H51.2874C43.8093 143.46 37.3085 143.11 31.9609 142.41C30.9665 142.281 29.9889 142.136 29.0698 141.983C24.8335 141.274 21.4828 140.309 19.0931 139.139C18.6837 138.925 18.2575 138.823 17.823 138.823Z" fill="#747B2B"/>
<path d="M17.1963 139.805C16.2103 140.155 15.5502 141.299 16.0182 142.461C19.0179 149.933 27.4237 155.313 37.3252 155.313H51.2791V150.275H37.3252C28.51 150.275 20.8812 146.013 17.1963 139.805Z" fill="#9FA52D"/>
<path d="M87.4261 96.3971C86.181 96.3971 85.17 95.3638 85.17 94.0914V90.2909C85.17 89.0185 86.181 87.9852 87.4261 87.9852H89.1139C89.4481 87.9852 89.7241 88.2669 89.7241 88.6085V95.7734C89.7241 96.115 89.4481 96.3971 89.1139 96.3971H87.4261Z" fill="#848418"/>
<path d="M89.1139 88.4891C89.1725 88.4891 89.2224 88.5405 89.2224 88.6V95.7649C89.2224 95.8248 89.1725 95.8762 89.1139 95.8762H87.4261C86.4567 95.8762 85.6714 95.0732 85.6714 94.0828V90.2824C85.6714 89.292 86.4567 88.4891 87.4261 88.4891H89.1139ZM89.1139 87.4643H87.4261C85.9054 87.4643 84.6687 88.7283 84.6687 90.2824V94.0828C84.6687 95.637 85.9054 96.901 87.4261 96.901H89.1139C89.7237 96.901 90.2251 96.3886 90.2251 95.7649V88.6C90.2251 87.9767 89.7237 87.4643 89.1139 87.4643Z" fill="#747B2B"/>
<path d="M46.1737 145.706C43.2076 145.706 40.5085 143.785 39.4725 140.932C39.1803 140.121 39.0298 139.275 39.0298 138.404V134.391C39.0298 134.373 39.0298 134.356 39.0298 134.331C39.0547 130.334 42.2632 127.089 46.1737 127.089H102.742C106.611 127.089 109.819 130.309 109.886 134.262C109.886 134.305 109.886 134.348 109.886 134.391V138.404C109.886 139.258 109.744 140.104 109.452 140.907C108.415 143.776 105.725 145.706 102.742 145.706H46.1737Z" fill="#BCC745"/>
<path d="M102.742 127.601C106.36 127.601 109.326 130.59 109.385 134.279C109.385 134.314 109.385 134.356 109.385 134.391V138.404C109.385 139.216 109.243 140.001 108.984 140.727C108.048 143.323 105.599 145.193 102.742 145.193H46.1737C43.3245 145.193 40.8847 143.34 39.9406 140.753C39.6729 140.019 39.5311 139.224 39.5311 138.404V134.391C39.5311 134.373 39.5311 134.365 39.5311 134.348C39.5561 130.633 42.5309 127.601 46.1737 127.601H102.742ZM102.742 126.577H46.1737C41.9876 126.577 38.5617 130.052 38.5284 134.322C38.5284 134.348 38.5284 134.373 38.5284 134.391V138.404C38.5284 139.335 38.6872 140.24 39.0048 141.111C40.116 144.169 42.9986 146.218 46.1737 146.218H102.742C105.934 146.218 108.817 144.152 109.919 141.086C110.229 140.223 110.388 139.326 110.388 138.404V134.391C110.388 134.348 110.388 134.305 110.388 134.245C110.354 132.196 109.544 130.274 108.098 128.822C106.661 127.38 104.756 126.577 102.742 126.577Z" fill="#747B2B"/>
<path d="M53.368 132.546C52.031 132.546 50.9531 131.436 50.9531 130.078V127.277H60.7796V130.078C60.7796 131.444 59.6933 132.546 58.3648 132.546H53.368Z" fill="#848418"/>
<path d="M60.4621 127.601V130.069C60.4621 131.248 59.5263 132.213 58.3648 132.213H53.368C52.2149 132.213 51.2708 131.257 51.2708 130.069V127.601H60.4621ZM61.1056 126.944H60.4621H51.2791H50.636V127.601V130.069C50.636 131.615 51.864 132.871 53.3764 132.871H58.3731C59.8855 132.871 61.1139 131.615 61.1139 130.069V127.601V126.944H61.1056Z" fill="#747B2B"/>
<path d="M89.0469 132.546C87.71 132.546 86.6321 131.436 86.6321 130.078V127.277H96.4585V130.078C96.4585 131.444 95.3723 132.546 94.0437 132.546H89.0469Z" fill="#848418"/>
<path d="M96.1409 127.601V130.069C96.1409 131.248 95.2052 132.213 94.0437 132.213H89.0469C87.8937 132.213 86.9496 131.257 86.9496 130.069V127.601H96.1409ZM96.7844 126.944H96.1409H86.958H86.3145V127.601V130.069C86.3145 131.615 87.5429 132.871 89.0552 132.871H94.052C95.5643 132.871 96.7927 131.615 96.7927 130.069V127.601V126.944H96.7844Z" fill="#747B2B"/>
<g opacity="0.4">
<path opacity="0.4" d="M109.385 134.279C109.326 130.599 106.36 127.601 102.742 127.601H46.1737C42.5392 127.601 39.5561 130.633 39.5311 134.348C39.5311 134.365 39.5311 134.373 39.5311 134.391V136.824C39.5311 136.807 39.5311 136.799 39.5311 136.782C39.5561 133.067 42.5309 130.035 46.1737 130.035H102.742C106.36 130.035 109.326 133.033 109.385 136.714C109.385 136.748 109.385 136.79 109.385 136.824V134.391C109.385 134.356 109.385 134.314 109.385 134.279Z" fill="#EFF2BD"/>
</g>
<path d="M96.3584 60.7687C97.1474 60.7687 97.7871 59.5376 97.7871 58.0189C97.7871 56.5003 97.1474 55.2692 96.3584 55.2692C95.5693 55.2692 94.9296 56.5003 94.9296 58.0189C94.9296 59.5376 95.5693 60.7687 96.3584 60.7687Z" fill="#454A4C"/>
<path d="M101.355 60.7687C102.144 60.7687 102.784 59.5376 102.784 58.0189C102.784 56.5003 102.144 55.2692 101.355 55.2692C100.566 55.2692 99.9259 56.5003 99.9259 58.0189C99.9259 59.5376 100.566 60.7687 101.355 60.7687Z" fill="#454A4C"/>
<path d="M102.784 64.7144H106.845C108.44 64.7144 108.44 62.5709 110.028 62.5709C111.624 62.5709 111.624 64.7144 113.212 64.7144H113.872" stroke="#454A4C" stroke-width="2" stroke-miterlimit="10" stroke-linecap="round"/>
<path d="M116.504 67.6264L113.663 64.7144L116.57 61.7425" stroke="#454A4C" stroke-width="2" stroke-miterlimit="10" stroke-linecap="round"/>
<path d="M109.385 134.391V138.404C109.385 139.216 109.243 140.001 108.984 140.727C108.8 140.744 108.616 140.753 108.424 140.753H39.949C39.6817 140.019 39.5396 139.224 39.5396 138.404V134.391C39.5396 134.373 39.5396 134.365 39.5396 134.348H108.432C108.758 134.348 109.076 134.322 109.393 134.279C109.385 134.314 109.385 134.356 109.385 134.391Z" fill="#9FA52D"/>
<path d="M71.1241 139.036C70.8734 139.036 70.6643 138.823 70.6643 138.567V136.38C70.6643 134.937 71.8092 133.767 73.2213 133.767H77.9425C79.3542 133.767 80.4991 134.937 80.4991 136.38V138.567C80.4991 138.823 80.2904 139.036 80.0397 139.036H71.1241Z" fill="#848418"/>
<path d="M77.9338 134.092C79.1705 134.092 80.1648 135.116 80.1648 136.372V138.558C80.1648 138.635 80.1062 138.703 80.0227 138.703H71.124C71.0488 138.703 70.9819 138.643 70.9819 138.558V136.372C70.9819 135.108 71.9846 134.092 73.213 134.092H77.9338ZM77.9338 133.434H73.213C71.6254 133.434 70.3384 134.758 70.3384 136.372V138.558C70.3384 139.002 70.6896 139.361 71.124 139.361H80.031C80.4658 139.361 80.8167 139.002 80.8167 138.558V136.372C80.8167 134.749 79.5213 133.434 77.9338 133.434Z" fill="#747B2B"/>
<path d="M38.3947 155.185H35.3866C31.7352 155.185 28.7439 152.128 28.7439 148.396V144.382C28.7439 143.87 28.8024 143.366 28.911 142.888C29.8218 143.041 30.7994 143.187 31.8355 143.323C31.7854 143.673 31.752 144.023 31.752 144.382V148.396C31.752 152.128 34.7433 155.185 38.3947 155.185Z" fill="#9FA52D"/>
<path d="M39.155 155.697C35.2196 155.697 32.011 152.418 32.011 148.396V144.382C32.011 140.36 35.2196 137.081 39.155 137.081H108.424C112.359 137.081 115.568 140.36 115.568 144.382V148.396C115.568 152.418 112.359 155.697 108.424 155.697H39.155Z" fill="#BCC745"/>
<path d="M108.424 137.593C112.075 137.593 115.067 140.65 115.067 144.382V148.396C115.067 152.128 112.075 155.185 108.424 155.185H39.155C35.5035 155.185 32.5122 152.128 32.5122 148.396V144.382C32.5122 140.65 35.5035 137.593 39.155 137.593H108.424ZM108.424 136.568H39.155C37.1162 136.568 35.2027 137.38 33.7572 138.865C32.3117 140.343 31.5095 142.307 31.5095 144.382V148.396C31.5095 150.48 32.3033 152.435 33.7572 153.913C35.2027 155.39 37.1246 156.21 39.155 156.21H108.424C110.463 156.21 112.376 155.399 113.822 153.913C115.267 152.435 116.069 150.471 116.069 148.396V144.382C116.069 142.298 115.275 140.343 113.822 138.865C112.376 137.38 110.463 136.568 108.424 136.568Z" fill="#747B2B"/>
<path d="M49.0567 145.279C46.9844 145.279 45.2966 143.554 45.2966 141.436V137.081H60.5876V141.436C60.5876 143.554 58.8994 145.279 56.8275 145.279H49.0567Z" fill="#848418"/>
<path d="M60.0862 137.593V141.436C60.0862 143.272 58.6238 144.766 56.8275 144.766H49.0567C47.26 144.766 45.798 143.272 45.798 141.436V137.593H60.0862ZM61.0889 136.568H60.0862H45.798H44.7953V137.593V141.436C44.7953 143.836 46.7088 145.791 49.0567 145.791H56.8275C59.1754 145.791 61.0889 143.836 61.0889 141.436V137.593V136.568Z" fill="#747B2B"/>
<path d="M91.6708 145.279C89.5985 145.279 87.9108 143.554 87.9108 141.436V137.081H103.202V141.436C103.202 143.554 101.514 145.279 99.4416 145.279H91.6708Z" fill="#848418"/>
<path d="M102.7 137.593V141.436C102.7 143.272 101.238 144.766 99.4416 144.766H91.6708C89.8742 144.766 88.4121 143.272 88.4121 141.436V137.593H102.7ZM103.703 136.568H102.7H88.4121H87.4094V137.593V141.436C87.4094 143.836 89.3229 145.791 91.6708 145.791H99.4416C101.79 145.791 103.703 143.836 103.703 141.436V137.593V136.568Z" fill="#747B2B"/>
<g opacity="0.4">
<path opacity="0.4" d="M108.424 137.764H39.155C35.5037 137.764 32.5123 140.821 32.5123 144.553V147.243C32.5123 143.511 35.5037 140.454 39.155 140.454H108.424C112.075 140.454 115.067 143.511 115.067 147.243V144.553C115.067 140.821 112.084 137.764 108.424 137.764Z" fill="#EFF2BD"/>
</g>
<path d="M108.424 148.78H39.155C35.9047 148.78 33.1724 146.355 32.621 143.187C32.5541 143.579 32.5123 143.972 32.5123 144.382V148.396C32.5123 152.128 35.5037 155.185 39.155 155.185H108.424C112.075 155.185 115.067 152.128 115.067 148.396V144.382C115.067 143.972 115.025 143.579 114.958 143.187C114.407 146.355 111.683 148.78 108.424 148.78Z" fill="#9FA52D"/>
<path d="M66.7708 155.697V151.342C66.7708 149.224 68.4585 147.499 70.5308 147.499H78.3016C80.3739 147.499 82.0617 149.224 82.0617 151.342V155.697H66.7708Z" fill="#848418"/>
<path d="M78.3016 148.012C80.0979 148.012 81.5604 149.506 81.5604 151.342V155.185H67.2721V151.342C67.2721 149.506 68.7342 148.012 70.5308 148.012H78.3016ZM78.3016 146.987H70.5308C68.1829 146.987 66.2694 148.942 66.2694 151.342V155.185V156.21H67.2721H81.5604H82.563V155.185V151.342C82.563 148.942 80.6579 146.987 78.3016 146.987Z" fill="#747B2B"/>
<path d="M89.2311 118.908V75.4487C89.2311 71.7511 91.4871 68.7451 94.2611 68.7451H94.2778L95.364 68.8135V118.899H89.2311V118.908Z" fill="#EFF48D"/>
<path d="M94.2611 69.1891L94.9296 69.232V118.464H89.6655V75.4487C89.6655 71.9902 91.7207 69.1891 94.2611 69.1891ZM94.2861 68.3096H94.2611C92.7571 68.3096 91.3532 69.0867 90.3256 70.4956C89.3479 71.8279 88.8046 73.5873 88.8046 75.4487V118.464V119.343H89.6655H94.9296H95.7901V118.464V69.232V68.4035L94.9795 68.3521L94.311 68.3096H94.2861Z" fill="#747B2B"/>
<path opacity="0.39" d="M89.3308 72.8357H94.9291" stroke="#747B2B" stroke-width="10.2982" stroke-miterlimit="10"/>
<path opacity="0.39" d="M89.3308 77.0457H94.9291" stroke="#747B2B" stroke-width="10.2982" stroke-miterlimit="10"/>
<path opacity="0.39" d="M89.3308 81.2646H94.9291" stroke="#747B2B" stroke-width="10.2982" stroke-miterlimit="10"/>
<path opacity="0.39" d="M89.3308 85.4746H94.9291" stroke="#747B2B" stroke-width="10.2982" stroke-miterlimit="10"/>
<path opacity="0.39" d="M89.3308 89.6846H94.9291" stroke="#747B2B" stroke-width="10.2982" stroke-miterlimit="10"/>
<path opacity="0.39" d="M89.3308 93.9032H94.9291" stroke="#747B2B" stroke-width="10.2982" stroke-miterlimit="10"/>
<path opacity="0.39" d="M89.3308 98.1136H94.9291" stroke="#747B2B" stroke-width="10.2982" stroke-miterlimit="10"/>
<path opacity="0.39" d="M89.3308 102.332H94.9291" stroke="#747B2B" stroke-width="10.2982" stroke-miterlimit="10"/>
<path opacity="0.39" d="M89.3308 106.542H94.9291" stroke="#747B2B" stroke-width="10.2982" stroke-miterlimit="10"/>
<path opacity="0.39" d="M89.3308 110.761H94.9291" stroke="#747B2B" stroke-width="10.2982" stroke-miterlimit="10"/>
<path opacity="0.39" d="M89.3308 114.971H94.9291" stroke="#747B2B" stroke-width="10.2982" stroke-miterlimit="10"/>
<path d="M88.788 114.425H80.4908V118.464H88.788V114.425Z" fill="#9FA52D"/>
<path d="M133.525 155.817H137.234" stroke="#747B2B" stroke-width="10.883" stroke-miterlimit="10" stroke-linecap="round"/>
<path d="M19.3436 155.817H130.266" stroke="#747B2B" stroke-width="10.883" stroke-miterlimit="10" stroke-linecap="round"/>
<path d="M5.88269 155.817H15.0823" stroke="#747B2B" stroke-width="10.883" stroke-miterlimit="10" stroke-linecap="round"/>
<path d="M31.6927 9.96956C34.0398 9.96956 36.0845 10.3653 37.8267 11.1566C39.569 11.948 40.9119 13.0856 41.8556 14.5695C42.7993 16.0533 43.2712 17.7845 43.2712 19.7629C43.2712 21.7414 42.7993 23.4725 41.8556 24.9564C40.9119 26.4402 39.569 27.5778 37.8267 28.3692C36.0845 29.1606 34.0398 29.5563 31.6927 29.5563H28.0267V35.9368H19.4608V9.96956H31.6927ZM31.1482 22.8048C32.3097 22.8048 33.1808 22.5451 33.7616 22.0258C34.3423 21.4817 34.6327 20.7274 34.6327 19.7629C34.6327 18.7984 34.3423 18.0565 33.7616 17.5371C33.1808 16.9931 32.3097 16.721 31.1482 16.721H28.0267V22.8048H31.1482ZM68.2854 15.6453L60.1187 36.3448C59.0782 38.991 57.7837 40.8458 56.235 41.9092C54.6864 42.9727 52.7869 43.5044 50.5365 43.5044C49.4234 43.5044 48.2982 43.3312 47.1609 42.985C46.0479 42.6635 45.1646 42.2307 44.5113 41.6867L47.2335 35.9368C47.6449 36.2583 48.1046 36.5179 48.6128 36.7158C49.1451 36.9136 49.6533 37.0126 50.1372 37.0126C51.0325 37.0126 51.7101 36.7405 52.1698 36.1964L43.8217 15.6453H52.2424L56.3439 26.5144L60.518 15.6453H68.2854ZM84.6985 35.232C83.4644 35.9491 81.7827 36.3077 79.6533 36.3077C76.8706 36.3077 74.7291 35.6276 73.2289 34.2675C71.7286 32.8825 70.9785 30.8175 70.9785 28.0724V22.879H68.2563V16.7581H70.9785V11.0824H79.1815V16.7581H83.2466V22.879H79.1815V27.9982C79.1815 28.6165 79.3387 29.0987 79.6533 29.445C79.9679 29.7912 80.3792 29.9643 80.8874 29.9643C81.5891 29.9643 82.2061 29.7788 82.7385 29.4079L84.6985 35.232ZM100.559 15.2743C103.003 15.2743 104.963 16.0286 106.439 17.5371C107.939 19.0457 108.689 21.3209 108.689 24.3628V35.9368H100.486V25.8096C100.486 23.4849 99.6756 22.3225 98.0544 22.3225C97.1349 22.3225 96.3848 22.6564 95.804 23.3241C95.2475 23.9671 94.9692 24.9935 94.9692 26.4031V35.9368H86.7662V8.41153H94.9692V17.2775C96.4937 15.942 98.3569 15.2743 100.559 15.2743ZM123.095 36.3077C120.893 36.3077 118.909 35.8626 117.143 34.9723C115.401 34.0572 114.033 32.8083 113.041 31.2256C112.049 29.6181 111.553 27.8004 111.553 25.7725C111.553 23.7446 112.049 21.9392 113.041 20.3564C114.033 18.749 115.401 17.5001 117.143 16.6098C118.909 15.7194 120.893 15.2743 123.095 15.2743C125.322 15.2743 127.306 15.7194 129.048 16.6098C130.814 17.5001 132.182 18.749 133.15 20.3564C134.142 21.9392 134.638 23.7446 134.638 25.7725C134.638 27.8004 134.142 29.6181 133.15 31.2256C132.182 32.8083 130.814 34.0572 129.048 34.9723C127.306 35.8626 125.322 36.3077 123.095 36.3077ZM123.095 29.7788C124.039 29.7788 124.813 29.4326 125.418 28.7401C126.023 28.023 126.326 27.0337 126.326 25.7725C126.326 24.5112 126.023 23.5343 125.418 22.8419C124.813 22.1494 124.039 21.8032 123.095 21.8032C122.152 21.8032 121.377 22.1494 120.772 22.8419C120.168 23.5343 119.865 24.5112 119.865 25.7725C119.865 27.0337 120.168 28.023 120.772 28.7401C121.377 29.4326 122.152 29.7788 123.095 29.7788ZM150.998 15.2743C153.442 15.2743 155.402 16.0286 156.878 17.5371C158.378 19.0457 159.128 21.3209 159.128 24.3628V35.9368H150.925V25.8096C150.925 23.4849 150.115 22.3225 148.493 22.3225C147.574 22.3225 146.824 22.6564 146.243 23.3241C145.686 23.9671 145.408 24.9935 145.408 26.4031V35.9368H137.205V15.6453H145.009V17.6484C145.783 16.8571 146.679 16.2635 147.695 15.8678C148.711 15.4721 149.812 15.2743 150.998 15.2743Z" fill="#454A4C"/>
<path d="M229.355 47.3562H154.781C152.405 47.3562 150.478 49.3249 150.478 51.7532V107.451C150.478 109.879 152.405 111.848 154.781 111.848H229.355C231.731 111.848 233.657 109.879 233.657 107.451V51.7532C233.657 49.3249 231.731 47.3562 229.355 47.3562ZM222.184 50.2875H223.618C224.411 50.2875 225.053 50.9436 225.053 51.7532C225.053 52.5627 224.411 53.2189 223.618 53.2189H222.184C221.392 53.2189 220.75 52.5627 220.75 51.7532C220.75 50.9436 221.392 50.2875 222.184 50.2875ZM182.029 50.2875H216.448C217.24 50.2875 217.882 50.9436 217.882 51.7532C217.882 52.5627 217.24 53.2189 216.448 53.2189H182.029C181.237 53.2189 180.595 52.5627 180.595 51.7532C180.595 50.9436 181.237 50.2875 182.029 50.2875ZM174.859 50.2875H176.293C177.085 50.2875 177.727 50.9436 177.727 51.7532C177.727 52.5627 177.085 53.2189 176.293 53.2189H174.859C174.066 53.2189 173.424 52.5627 173.424 51.7532C173.424 50.9436 174.066 50.2875 174.859 50.2875ZM169.122 50.2875H170.556C171.348 50.2875 171.99 50.9436 171.99 51.7532C171.99 52.5627 171.348 53.2189 170.556 53.2189H169.122C168.33 53.2189 167.688 52.5627 167.688 51.7532C167.688 50.9436 168.33 50.2875 169.122 50.2875ZM163.386 50.2875C164.178 50.2875 164.82 50.9436 164.82 51.7532C164.82 52.5627 164.178 53.2189 163.386 53.2189C162.593 53.2189 161.951 52.5627 161.951 51.7532C161.951 50.9436 162.593 50.2875 163.386 50.2875ZM159.083 50.2875C159.875 50.2875 160.517 50.9436 160.517 51.7532C160.517 52.5627 159.875 53.2189 159.083 53.2189C158.291 53.2189 157.649 52.5627 157.649 51.7532C157.649 50.9436 158.291 50.2875 159.083 50.2875ZM154.781 50.2875C155.573 50.2875 156.215 50.9436 156.215 51.7532C156.215 52.5627 155.573 53.2189 154.781 53.2189C153.989 53.2189 153.347 52.5627 153.347 51.7532C153.347 50.9436 153.989 50.2875 154.781 50.2875ZM230.789 64.9447V107.451C230.789 108.26 230.147 108.916 229.355 108.916H192.068H154.781C153.989 108.916 153.347 108.26 153.347 107.451V64.9447V57.6159C153.347 56.8068 153.989 56.1502 154.781 56.1502H192.068H229.355C230.147 56.1502 230.789 56.8068 230.789 57.6159V64.9447ZM229.355 53.2189H227.921C227.129 53.2189 226.487 52.5623 226.487 51.7532C226.487 50.9436 227.129 50.2871 227.921 50.2871H229.355C230.147 50.2871 230.789 50.9436 230.789 51.7532C230.789 52.5627 230.147 53.2189 229.355 53.2189Z" fill="#D2DCF0"/>
<path d="M192.068 108.916H229.355C230.147 108.916 230.789 108.26 230.789 107.451V64.9447H192.068V108.916ZM213.58 72.2731V70.8074C213.58 69.9979 214.222 69.3417 215.014 69.3417H225.053C225.845 69.3417 226.487 69.9979 226.487 70.8074V72.2731V83.9989C226.487 84.8085 225.845 85.465 225.053 85.465H215.014C214.222 85.465 213.58 84.8085 213.58 83.9989V72.2731ZM196.37 72.2731V70.8074C196.37 69.9979 197.012 69.3417 197.805 69.3417H207.843C208.635 69.3417 209.278 69.9979 209.278 70.8074V72.2731V83.9989C209.278 84.8085 208.635 85.465 207.843 85.465H197.804C197.012 85.465 196.37 84.8085 196.37 83.9989V72.2731ZM197.804 89.862H199.239H225.053C225.845 89.862 226.487 90.5182 226.487 91.3277V103.054C226.487 103.863 225.845 104.519 225.053 104.519H199.239H197.804C197.012 104.519 196.37 103.863 196.37 103.054V91.3277C196.37 90.5182 197.012 89.862 197.804 89.862Z" fill="white"/>
<path d="M154.781 53.2189C155.573 53.2189 156.215 52.5627 156.215 51.7532C156.215 50.9437 155.573 50.2875 154.781 50.2875C153.989 50.2875 153.347 50.9437 153.347 51.7532C153.347 52.5627 153.989 53.2189 154.781 53.2189Z" fill="#FF6469"/>
<path d="M159.083 53.2189C159.875 53.2189 160.517 52.5627 160.517 51.7532C160.517 50.9437 159.875 50.2875 159.083 50.2875C158.291 50.2875 157.649 50.9437 157.649 51.7532C157.649 52.5627 158.291 53.2189 159.083 53.2189Z" fill="#FFE169"/>
<path d="M163.386 53.2189C164.178 53.2189 164.82 52.5627 164.82 51.7532C164.82 50.9437 164.178 50.2875 163.386 50.2875C162.593 50.2875 161.951 50.9437 161.951 51.7532C161.951 52.5627 162.593 53.2189 163.386 53.2189Z" fill="#87E1AA"/>
<path d="M169.122 53.2189H170.556C171.348 53.2189 171.99 52.5623 171.99 51.7532C171.99 50.9436 171.348 50.2871 170.556 50.2871H169.122C168.33 50.2871 167.688 50.9436 167.688 51.7532C167.688 52.5627 168.33 53.2189 169.122 53.2189Z" fill="#E4EAF6"/>
<path d="M174.859 53.2189H176.293C177.085 53.2189 177.727 52.5623 177.727 51.7532C177.727 50.9436 177.085 50.2871 176.293 50.2871H174.859C174.066 50.2871 173.424 50.9436 173.424 51.7532C173.424 52.5627 174.066 53.2189 174.859 53.2189Z" fill="#E4EAF6"/>
<path d="M222.184 53.2189H223.618C224.41 53.2189 225.053 52.5623 225.053 51.7532C225.053 50.9436 224.41 50.2871 223.618 50.2871H222.184C221.392 50.2871 220.75 50.9436 220.75 51.7532C220.75 52.5627 221.392 53.2189 222.184 53.2189Z" fill="#E4EAF6"/>
<path d="M229.355 50.2875H227.921C227.129 50.2875 226.487 50.9437 226.487 51.7532C226.487 52.5627 227.129 53.2189 227.921 53.2189H229.355C230.147 53.2189 230.789 52.5627 230.789 51.7532C230.789 50.9437 230.147 50.2875 229.355 50.2875Z" fill="#E4EAF6"/>
<path d="M182.029 53.2189H216.448C217.24 53.2189 217.882 52.5623 217.882 51.7532C217.882 50.9436 217.24 50.2871 216.448 50.2871H182.029C181.237 50.2871 180.595 50.9436 180.595 51.7532C180.595 52.5627 181.237 53.2189 182.029 53.2189Z" fill="#E4EAF6"/>
<path d="M229.355 56.1502H192.068V64.9447H230.789V57.6163C230.789 56.8068 230.147 56.1502 229.355 56.1502ZM202.107 62.0133H196.37C195.578 62.0133 194.936 61.3568 194.936 60.5473C194.936 59.7381 195.578 59.0816 196.37 59.0816H202.107C202.899 59.0816 203.541 59.7381 203.541 60.5473C203.541 61.3568 202.899 62.0133 202.107 62.0133ZM213.58 62.0133H207.843C207.051 62.0133 206.409 61.3568 206.409 60.5473C206.409 59.7381 207.051 59.0816 207.843 59.0816H213.58C214.372 59.0816 215.014 59.7381 215.014 60.5473C215.014 61.3568 214.372 62.0133 213.58 62.0133ZM225.053 62.0133H219.316C218.524 62.0133 217.882 61.3568 217.882 60.5473C217.882 59.7381 218.524 59.0816 219.316 59.0816H225.053C225.845 59.0816 226.487 59.7381 226.487 60.5473C226.487 61.3568 225.845 62.0133 225.053 62.0133Z" fill="#FF6469"/>
<path d="M202.107 59.082H196.37C195.578 59.082 194.936 59.7381 194.936 60.5477C194.936 61.3572 195.578 62.0133 196.37 62.0133H202.107C202.899 62.0133 203.541 61.3572 203.541 60.5477C203.541 59.7381 202.899 59.082 202.107 59.082Z" fill="#D2555F"/>
<path d="M213.58 59.082H207.843C207.051 59.082 206.409 59.7381 206.409 60.5477C206.409 61.3572 207.051 62.0133 207.843 62.0133H213.58C214.372 62.0133 215.014 61.3572 215.014 60.5477C215.014 59.7381 214.372 59.082 213.58 59.082Z" fill="#D2555F"/>
<path d="M225.052 59.082H219.316C218.524 59.082 217.882 59.7381 217.882 60.5477C217.882 61.3572 218.524 62.0133 219.316 62.0133H225.052C225.845 62.0133 226.487 61.3572 226.487 60.5477C226.487 59.7381 225.845 59.082 225.052 59.082Z" fill="#D2555F"/>
<path d="M197.804 85.4646H207.843C208.635 85.4646 209.277 84.8084 209.277 83.9989V72.2731C209.277 73.0826 208.635 73.7388 207.843 73.7388H197.804C197.012 73.7388 196.37 73.0826 196.37 72.2731V83.9989C196.37 84.8084 197.012 85.4646 197.804 85.4646Z" fill="#DEE3ED"/>
<path d="M215.014 85.4646H225.053C225.845 85.4646 226.487 84.8084 226.487 83.9989V72.2731C226.487 73.0826 225.845 73.7388 225.053 73.7388H215.014C214.222 73.7388 213.579 73.0826 213.579 72.2731V83.9989C213.58 84.8084 214.222 85.4646 215.014 85.4646Z" fill="#DEE3ED"/>
<path d="M197.804 73.7392H207.843C208.635 73.7392 209.277 73.0826 209.277 72.2731V70.8074C209.277 69.9979 208.635 69.3417 207.843 69.3417H197.804C197.012 69.3417 196.37 69.9979 196.37 70.8074V72.2731C196.37 73.0826 197.012 73.7392 197.804 73.7392Z" fill="#FF969B"/>
<path d="M215.014 73.7392H225.053C225.845 73.7392 226.487 73.0826 226.487 72.2731V70.8074C226.487 69.9979 225.845 69.3417 225.053 69.3417H215.014C214.222 69.3417 213.579 69.9979 213.579 70.8074V72.2731C213.58 73.0826 214.222 73.7392 215.014 73.7392Z" fill="#A0DCF0"/>
<path d="M200.673 91.3277V103.054C200.673 103.863 200.03 104.519 199.239 104.519H225.053C225.845 104.519 226.487 103.863 226.487 103.054V91.3277C226.487 90.5182 225.845 89.862 225.053 89.862H199.239C200.03 89.862 200.673 90.5182 200.673 91.3277Z" fill="#DEE3ED"/>
<path d="M197.804 104.519H199.238C200.03 104.519 200.673 103.863 200.673 103.054V91.3277C200.673 90.5182 200.03 89.8616 199.238 89.8616H197.804C197.012 89.8616 196.37 90.5182 196.37 91.3277V103.054C196.37 103.863 197.012 104.519 197.804 104.519Z" fill="#91E6BE"/>
<path d="M192.068 56.1502H154.781C153.989 56.1502 153.347 56.8068 153.347 57.6163V64.9447V107.451C153.347 108.26 153.989 108.917 154.781 108.917H192.068V64.9447V56.1502ZM164.82 60.5473H187.766C188.557 60.5473 189.2 61.2038 189.2 62.0133C189.2 62.8225 188.557 63.479 187.766 63.479H164.82C164.027 63.479 163.386 62.8225 163.386 62.0133C163.386 61.2038 164.027 60.5473 164.82 60.5473ZM157.649 60.5473H159.083C159.875 60.5473 160.517 61.2038 160.517 62.0133C160.517 62.8225 159.875 63.479 159.083 63.479H157.649C156.857 63.479 156.215 62.8225 156.215 62.0133C156.215 61.2038 156.857 60.5473 157.649 60.5473ZM171.99 69.3417H167.688C166.896 69.3417 166.254 68.6856 166.254 67.8761C166.254 67.0665 166.896 66.4104 167.688 66.4104H171.99C172.782 66.4104 173.424 67.0665 173.424 67.8761C173.424 68.6856 172.782 69.3417 171.99 69.3417ZM173.424 73.7392C173.424 74.5483 172.782 75.2048 171.99 75.2048H167.688C166.896 75.2048 166.254 74.5483 166.254 73.7392C166.254 72.9296 166.896 72.2731 167.688 72.2731H171.99C172.782 72.2731 173.424 72.9296 173.424 73.7392ZM157.649 83.9989H159.083C159.875 83.9989 160.517 84.6554 160.517 85.465C160.517 86.2741 159.875 86.9307 159.083 86.9307H157.649C156.857 86.9307 156.215 86.2741 156.215 85.465C156.215 84.6554 156.857 83.9989 157.649 83.9989ZM156.215 79.6019C156.215 78.7923 156.857 78.1362 157.649 78.1362H159.083C159.875 78.1362 160.517 78.7923 160.517 79.6019C160.517 80.4114 159.875 81.0676 159.083 81.0676H157.649C156.857 81.0676 156.215 80.4114 156.215 79.6019ZM160.517 89.862H161.951C162.744 89.862 163.386 90.5182 163.386 91.3277C163.386 92.1372 162.744 92.7934 161.951 92.7934H160.517C159.725 92.7934 159.083 92.1372 159.083 91.3277C159.083 90.5182 159.725 89.862 160.517 89.862ZM161.951 75.2048H160.517C159.725 75.2048 159.083 74.5483 159.083 73.7388C159.083 72.9296 159.725 72.2731 160.517 72.2731H161.951C162.744 72.2731 163.386 72.9296 163.386 73.7388C163.386 74.5483 162.744 75.2048 161.951 75.2048ZM161.951 69.3417H160.517C159.725 69.3417 159.083 68.6856 159.083 67.8761C159.083 67.0665 159.725 66.4104 160.517 66.4104H161.951C162.744 66.4104 163.386 67.0665 163.386 67.8761C163.386 68.6856 162.744 69.3417 161.951 69.3417ZM159.083 104.519H157.649C156.857 104.519 156.215 103.863 156.215 103.053C156.215 102.244 156.857 101.587 157.649 101.587H159.083C159.875 101.587 160.517 102.244 160.517 103.053C160.517 103.863 159.875 104.519 159.083 104.519ZM161.951 98.6561H160.517C159.725 98.6561 159.083 98 159.083 97.1904C159.083 96.3809 159.725 95.7247 160.517 95.7247H161.951C162.744 95.7247 163.386 96.3809 163.386 97.1904C163.386 98 162.744 98.6561 161.951 98.6561ZM187.766 104.519H164.82C164.027 104.519 163.386 103.863 163.386 103.053C163.386 102.244 164.027 101.587 164.82 101.587H187.766C188.557 101.587 189.2 102.244 189.2 103.053C189.2 103.863 188.557 104.519 187.766 104.519ZM167.688 95.7247H171.99C172.782 95.7247 173.424 96.3809 173.424 97.1904C173.424 98 172.782 98.6561 171.99 98.6561H167.688C166.896 98.6561 166.254 98 166.254 97.1904C166.254 96.3809 166.896 95.7247 167.688 95.7247ZM166.254 91.3277C166.254 90.5182 166.896 89.862 167.688 89.862H171.99C172.782 89.862 173.424 90.5182 173.424 91.3277C173.424 92.1372 172.782 92.7934 171.99 92.7934H167.688C166.896 92.7934 166.254 92.1372 166.254 91.3277ZM187.766 98.6561H177.727C176.935 98.6561 176.293 98 176.293 97.1904C176.293 96.3809 176.935 95.7247 177.727 95.7247H187.766C188.557 95.7247 189.2 96.3809 189.2 97.1904C189.2 98 188.557 98.6561 187.766 98.6561ZM187.766 92.7934H177.727C176.935 92.7934 176.293 92.1369 176.293 91.3277C176.293 90.5182 176.935 89.8616 177.727 89.8616H187.766C188.557 89.8616 189.2 90.5182 189.2 91.3277C189.2 92.1369 188.557 92.7934 187.766 92.7934ZM187.766 86.9307H164.82C164.027 86.9307 163.386 86.2741 163.386 85.4646C163.386 84.6554 164.027 83.9989 164.82 83.9989H187.766C188.557 83.9989 189.2 84.6554 189.2 85.4646C189.2 86.2741 188.557 86.9307 187.766 86.9307ZM187.766 81.0676H164.82C164.027 81.0676 163.386 80.4114 163.386 79.6019C163.386 78.7923 164.027 78.1362 164.82 78.1362H187.766C188.557 78.1362 189.2 78.7923 189.2 79.6019C189.2 80.4114 188.557 81.0676 187.766 81.0676ZM187.766 75.2048H177.727C176.935 75.2048 176.293 74.5483 176.293 73.7388C176.293 72.9296 176.935 72.2731 177.727 72.2731H187.766C188.557 72.2731 189.2 72.9296 189.2 73.7388C189.2 74.5483 188.557 75.2048 187.766 75.2048ZM187.766 69.3417H177.727C176.935 69.3417 176.293 68.6856 176.293 67.8761C176.293 67.0665 176.935 66.4104 177.727 66.4104H187.766C188.557 66.4104 189.2 67.0665 189.2 67.8761C189.2 68.6856 188.557 69.3417 187.766 69.3417Z" fill="#464655"/>
<path d="M164.82 63.479H187.765C188.557 63.479 189.2 62.8229 189.2 62.0133C189.2 61.2038 188.557 60.5477 187.765 60.5477H164.82C164.027 60.5477 163.385 61.2038 163.385 62.0133C163.385 62.8229 164.027 63.479 164.82 63.479Z" fill="#FFE169"/>
<path d="M171.99 66.4104H167.688C166.896 66.4104 166.254 67.0669 166.254 67.876C166.254 68.6856 166.896 69.3421 167.688 69.3421H171.99C172.782 69.3421 173.424 68.6856 173.424 67.876C173.424 67.0665 172.782 66.4104 171.99 66.4104Z" fill="#91E6BE"/>
<path d="M171.99 72.2731H167.688C166.896 72.2731 166.254 72.9296 166.254 73.7392C166.254 74.5483 166.896 75.2048 167.688 75.2048H171.99C172.782 75.2048 173.424 74.5483 173.424 73.7392C173.424 72.9296 172.782 72.2731 171.99 72.2731Z" fill="#91E6BE"/>
<path d="M187.765 78.1362H164.82C164.027 78.1362 163.385 78.7923 163.385 79.6019C163.385 80.4114 164.027 81.0676 164.82 81.0676H187.765C188.557 81.0676 189.2 80.4114 189.2 79.6019C189.2 78.7923 188.557 78.1362 187.765 78.1362Z" fill="#FFE169"/>
<path d="M187.765 83.9989H164.82C164.027 83.9989 163.385 84.6554 163.385 85.465C163.385 86.2741 164.027 86.9306 164.82 86.9306H187.765C188.557 86.9306 189.2 86.2741 189.2 85.465C189.2 84.6554 188.557 83.9989 187.765 83.9989Z" fill="white"/>
<path d="M187.765 66.4104H177.727C176.935 66.4104 176.292 67.0669 176.292 67.876C176.292 68.6856 176.935 69.3421 177.727 69.3421H187.765C188.557 69.3421 189.2 68.6856 189.2 67.876C189.2 67.0665 188.557 66.4104 187.765 66.4104Z" fill="white"/>
<path d="M187.765 72.2731H177.727C176.935 72.2731 176.292 72.9296 176.292 73.7392C176.292 74.5483 176.935 75.2048 177.727 75.2048H187.765C188.557 75.2048 189.2 74.5483 189.2 73.7392C189.2 72.9296 188.557 72.2731 187.765 72.2731Z" fill="white"/>
<path d="M187.765 89.862H177.727C176.935 89.862 176.292 90.5182 176.292 91.3277C176.292 92.1372 176.935 92.7934 177.727 92.7934H187.765C188.557 92.7934 189.2 92.1372 189.2 91.3277C189.2 90.5182 188.557 89.862 187.765 89.862Z" fill="white"/>
<path d="M187.765 95.7247H177.727C176.935 95.7247 176.292 96.3809 176.292 97.1904C176.292 98 176.935 98.6565 177.727 98.6565H187.765C188.557 98.6565 189.2 98 189.2 97.1904C189.2 96.3809 188.557 95.7247 187.765 95.7247Z" fill="white"/>
<path d="M167.688 92.7934H171.99C172.782 92.7934 173.424 92.1369 173.424 91.3277C173.424 90.5182 172.782 89.8616 171.99 89.8616H167.688C166.896 89.8616 166.254 90.5182 166.254 91.3277C166.254 92.1369 166.896 92.7934 167.688 92.7934Z" fill="#91E6BE"/>
<path d="M167.688 98.6565H171.99C172.782 98.6565 173.424 98 173.424 97.1904C173.424 96.3813 172.782 95.7247 171.99 95.7247H167.688C166.896 95.7247 166.254 96.3813 166.254 97.1904C166.254 98 166.896 98.6565 167.688 98.6565Z" fill="#91E6BE"/>
<path d="M187.765 101.588H164.82C164.027 101.588 163.385 102.244 163.385 103.054C163.385 103.863 164.027 104.519 164.82 104.519H187.765C188.557 104.519 189.2 103.863 189.2 103.054C189.2 102.244 188.557 101.588 187.765 101.588Z" fill="#FFE169"/>
<path d="M157.649 63.479H159.083C159.875 63.479 160.517 62.8229 160.517 62.0133C160.517 61.2038 159.875 60.5477 159.083 60.5477H157.649C156.857 60.5477 156.215 61.2038 156.215 62.0133C156.215 62.8229 156.857 63.479 157.649 63.479Z" fill="#FF6469"/>
<path d="M161.951 66.4104H160.517C159.725 66.4104 159.083 67.0669 159.083 67.876C159.083 68.6856 159.725 69.3421 160.517 69.3421H161.951C162.744 69.3421 163.385 68.6856 163.385 67.876C163.385 67.0665 162.744 66.4104 161.951 66.4104Z" fill="#FF6469"/>
<path d="M161.951 72.2731H160.517C159.725 72.2731 159.083 72.9296 159.083 73.7392C159.083 74.5483 159.725 75.2048 160.517 75.2048H161.951C162.744 75.2048 163.385 74.5483 163.385 73.7392C163.385 72.9296 162.744 72.2731 161.951 72.2731Z" fill="#FF6469"/>
<path d="M157.649 81.0676H159.083C159.875 81.0676 160.517 80.4114 160.517 79.6019C160.517 78.7923 159.875 78.1362 159.083 78.1362H157.649C156.857 78.1362 156.215 78.7923 156.215 79.6019C156.215 80.4114 156.857 81.0676 157.649 81.0676Z" fill="#FF6469"/>
<path d="M157.649 86.9306H159.083C159.875 86.9306 160.517 86.2741 160.517 85.4646C160.517 84.6554 159.875 83.9989 159.083 83.9989H157.649C156.857 83.9989 156.215 84.6554 156.215 85.4646C156.215 86.2741 156.857 86.9306 157.649 86.9306Z" fill="#FF6469"/>
<path d="M160.517 92.7934H161.951C162.744 92.7934 163.385 92.1369 163.385 91.3277C163.385 90.5182 162.744 89.8616 161.951 89.8616H160.517C159.725 89.8616 159.083 90.5182 159.083 91.3277C159.083 92.1369 159.725 92.7934 160.517 92.7934Z" fill="#FF6469"/>
<path d="M161.951 95.7247H160.517C159.725 95.7247 159.083 96.3809 159.083 97.1904C159.083 98 159.725 98.6565 160.517 98.6565H161.951C162.744 98.6565 163.385 98 163.385 97.1904C163.385 96.3809 162.744 95.7247 161.951 95.7247Z" fill="#FF6469"/>
<path d="M159.083 101.588H157.649C156.857 101.588 156.215 102.244 156.215 103.054C156.215 103.863 156.857 104.519 157.649 104.519H159.083C159.875 104.519 160.517 103.863 160.517 103.054C160.517 102.244 159.875 101.588 159.083 101.588Z" fill="#FF6469"/>
</g>
<defs>
<clipPath id="clip0_8_409">
<rect width="245" height="165" fill="white"/>
</clipPath>
</defs>
</svg>
